<?xml version="1.0" encoding="UTF-8"?>
<svg id="Layer_1" data-name="Layer 1" xmlns="http://www.w3.org/2000/svg" viewBox="0 0 494.45 510.56">
  <defs>
    <style>
      .cls-1 {
        fill: #cc3f4c;
      }

      .cls-2 {
        fill: #ffc;
        stroke-width: .5px;
      }

      .cls-2, .cls-3, .cls-4, .cls-5, .cls-6, .cls-7, .cls-8 {
        stroke: #000;
      }

      .cls-9, .cls-3, .cls-4, .cls-7 {
        fill: #fff;
      }

      .cls-10 {
        fill: #fcf2eb;
      }

      .cls-3 {
        stroke-width: .17px;
      }

      .cls-11, .cls-6 {
        fill: #cc7226;
      }

      .cls-12 {
        fill: #e87f3a;
      }

      .cls-13 {
        fill: #99cc32;
      }

      .cls-14 {
        fill: #992600;
      }

      .cls-15 {
        stroke: #a5264c;
      }

      .cls-15, .cls-16, .cls-8, .cls-17 {
        fill: none;
      }

      .cls-15, .cls-16, .cls-17 {
        stroke-width: 2px;
      }

      .cls-18 {
        fill: #4c0000;
      }

      .cls-19 {
        fill: #b2b2b2;
      }

      .cls-4 {
        stroke-width: .1px;
      }

      .cls-20 {
        fill: #323232;
      }

      .cls-21 {
        fill: #eea575;
      }

      .cls-22 {
        fill: #659900;
      }

      .cls-23 {
        fill: #f3bf9c;
      }

      .cls-24 {
        fill: #f1b288;
      }

      .cls-25 {
        fill: #b26565;
      }

      .cls-26 {
        fill: #fae5d7;
      }

      .cls-27 {
        fill: #a5264c;
      }

      .cls-28 {
        fill: #f8dcc8;
      }

      .cls-29 {
        fill: #ec9961;
      }

      .cls-5 {
        fill: #ff727f;
      }

      .cls-30 {
        fill: #ea8c4d;
      }

      .cls-31 {
        fill: #efaa7c;
      }

      .cls-32 {
        fill: #f8d8c4;
      }

      .cls-33 {
        fill: #b23259;
      }

      .cls-34 {
        fill: #f5ccb0;
      }

      .cls-16 {
        stroke: #4c0000;
      }

      .cls-35 {
        fill: #f2b892;
      }

      .cls-36 {
        fill: #999;
      }

      .cls-37 {
        fill: #ccc;
      }

      .cls-38 {
        fill: #ea8e51;
      }

      .cls-39 {
        fill: #e5668c;
      }

      .cls-40 {
        fill: #f4c6a8;
      }

      .cls-41 {
        fill: #eb955c;
      }

      .cls-42 {
        fill: #e59999;
      }

      .cls-43 {
        fill: #666;
      }

      .cls-44 {
        fill: #f9e2d3;
      }

      .cls-17 {
        stroke: #a51926;
      }

      .cls-45 {
        fill: #e5e5b2;
      }
    </style>
  </defs>
  <g transform="translate(200,200)">
    <path class="cls-3" d="M61.69,228.71s.1,1.89-.72,1.88c-.82-.02-17.28-48.09-37.81-45.85,0,0,17.78-7.35,38.53,43.98Z"/>
    <path class="cls-3" d="M65.22,225.69s-.55,1.82-1.32,1.52c-.77-.3,.12-51.1-19.95-55.98,0,0,19.22-.86,21.27,54.46Z"/>
    <path class="cls-3" d="M92.71,268.02s1.64,.96,1.17,1.64c-.47,.68-49.65-12.12-59.1,6.23,0,0,3.68-18.89,57.93-7.87Z"/>
    <path class="cls-3" d="M89.9,278.23s1.86,.4,1.62,1.19c-.23,.79-50.94,4.13-54.13,24.53,0,0-2.46-19.09,52.5-25.72Z"/>
    <path class="cls-3" d="M85.69,272.7s1.78,.66,1.43,1.41-50.99-3.34-57.13,16.38c0,0,.35-19.24,55.69-17.79Z"/>
    <path class="cls-3" d="M74.99,254.5s1.31,1.37,.67,1.9c-.64,.52-44.38-25.33-58.53-10.29,0,0,8.74-17.14,57.86,8.4Z"/>
    <path class="cls-3" d="M67.44,258.69s1.46,1.22,.88,1.81c-.58,.59-46.96-20.15-59.32-3.6,0,0,6.75-18.02,58.44,1.79Z"/>
    <path class="cls-3" d="M64.84,262.76s1.61,1.01,1.12,1.67c-.49,.66-49.27-13.56-59.25,4.52,0,0,4.23-18.77,58.14-6.19Z"/>
    <path class="cls-3" d="M75.58,263.38s1.12,1.53,.42,1.97c-.7,.43-40.77-30.81-56.73-17.71,0,0,10.87-15.88,56.31,15.74Z"/>
    <path class="cls-3" d="M55.8,234.43s.6,1.8-.2,2c-.8,.2-29.4-41.8-48.6-34.2,0,0,15.2-11.8,48.8,32.2Z"/>
    <path class="cls-3" d="M56.49,241.41s.97,1.63,.24,2c-.74,.37-37.72-34.48-54.83-22.91,0,0,12.3-14.8,54.6,20.92Z"/>
    <path class="cls-3" d="M56.38,245.78s1.12,1.53,.42,1.97c-.7,.43-40.77-30.81-56.73-17.71,0,0,10.87-15.88,56.31,15.74Z"/>
    <path class="cls-7" d="M54.17,247.49c.5,6.05,1.49,12.62,3.23,15.74,0,0-3.6,12.4,5.2,25.6,0,0-.4,7.2,1.2,10.4,0,0,4,8.4,8.8,9.2,3.88,.65,12.61,3.72,22.47,5.12,0,0,17.13,14.08,13.93,26.88,0,0-.4,16.4-4,18,0,0,11.6-11.2,2,5.6l-4.4,18.8s25.6-21.6,10-3.2l-10,26s19.6-18.4,12.4-10l-3.2,8.8s43.2-27.2,12.4,2.4c0,0,8-3.6,12.4-.8,0,0,6.8-1.2,6,.4,0,0-20.8,10.4-24.4,28.8,0,0,8.4-10,5.2,.8l.4,11.6s4-21.6,3.6,16c0,0,19.2-18,7.6,2.8v16.8s15.2-16.4,8.8-3.6c0,0,10-8.8,6,6.4,0,0-.8,10.4,3.6-.8,0,0,16-30.6,10-4.4,0,0-.8,19.2,4,4.4,0,0,.4,10.4,9.6,17.6,0,0-1.2-50.8,11.6-14.8l4,16.4s2.8-9.2,2.4-14.4c0,0,14.8-16.4,8,8,0,0,15.2-22.8,12-9.6,0,0-7.6,16-6,20.8,0,0,16.8-34.8,18-36.4,0,0-2,42.4,8.8,6.4,0,0,5.6,12,2.8,16.4,0,0,8-8,7.2-11.2,0,0,4.6-8.2,7.4,5.4,0,0,1.8,9.4,3.4,6.2,0,0,4,24,5.2,1.2,0,0,1.6-13.6-5.6-25.2,0,0,.8-3.2-2-7.2,0,0,13.6,21.6,6.4-7.2,0,0,11.2,8,12.4,8,0,0-13.6-23.2-4.8-18.4,0,0-5.2-10.4,12.8,1.6,0,0-16-16,1.6-6.4,0,0,8,6.4,.4-3.6,0,0-14.4-16,7.6,2,0,0,11.6,16.4,12.4,19.2,0,0-10-29.2-14.4-32,0,0,8.4-36.4,49.6-20.8,0,0,6.8,17.2,11.2-1.2,0,0,12.8-6.4,24,21.2,0,0,4-13.6,3.2-16.4,0,0,6.8,1.2,6,0,0,0,13.2,4.4,14.4,3.6,0,0,6.8,6.8,7.2,3.2,0,0,9.2,2.8,7.2-.8,0,0,8.8,15.6,9.2,19.2l2.4-14,2,2.8s1.6-7.6,.8-8.8c-.8-1.2,20,6.8,24.8,27.6l2,8.4s6-14.8,4.4-18.8c0,0,5.2,.8,5.6,5.2,0,0,4-23.2-.8-29.2,0,0,4.4-.8,5.6,2.8v-7.2s7.2,.8,7.2-1.6c0,0,4.4-4,6.4,.8,0,0-12.4-35.2,6-16,0,0,7.2,10.8,3.6-8-3.6-18.8-7.6-20.4-2.8-20.8,0,0,.8-3.6-1.2-5.2-2-1.6,1.2,0,1.2,0,0,0,4.8,4-.4-18,0,0,6.4,1.6-5.6-27.6,0,0,2.8-2.4-1.2-10.8,0,0,8,4.4,10.8,2.8,0,0-.4-1.6-3.6-5.6,0,0-21.6-54.8-1.2-32.8,0,0,11.85,13.55,5.45-9.25,0,0-9.11-24.01-8.33-28.31L54.17,247.49Z"/>
    <path class="cls-6" d="M483.71,224.67c.63,.18,2.83,1.31,4.08,2.95,0,0,6.8,10.8,1.6-7.6,0,0-9.2-28.8-.4-17.6,0,0,6,7.2,2.8-6.4-3.86-16.43-6.4-22.8-6.4-22.8,0,0,11.6,4.8-15.2-34.8l8.8,3.6s-19.6-39.6-41.2-44.8l-8-6s38.4-38,25.6-74.8c0,0-6.8-5.2-16.4,4,0,0-6.4,4.8-12.4,3.2,0,0-30.8,1.2-32.8,1.2s-36.8-37.2-102.4-19.6c0,0-5.2,2-9.6,.8,0,0-18.4-16-67.2,6.8,0,0-10,2-11.6,2s-4.4,0-12.4,6.4c-8,6.4-8.4,7.2-10.4,8.8,0,0-16.4,11.2-21.2,12,0,0-11.6,6.4-16,16.4l-3.6,1.2s-1.6,7.2-2,8.4c0,0-4.8,3.6-5.6,9.2,0,0-8.8,6-8.4,10.4,0,0-1.6,5.2-2.4,10,0,0-7.2,4.8-6.4,7.6,0,0-7.6,14-6.4,20.8,0,0-6.4-.4-9.2,2,0,0-.8,4.8-2.4,5.2,0,0-2.8,1.2-.4,5.2,0,0-1.6,2.8-2,4.4,0,0,.8,2.8-3.6,8.4,0,0-6.4,18.8-4.4,24,0,0,.4,4.8-2.4,6.4,0,0-3.6-.4,4.8,11.6,0,0,.8,1.2-2.4,3.6,0,0-17.2,3.6-19.6,20,0,0-13.6,14.8-13.6,20,0,2.31,.27,5.45,.97,10.06,0,0-.57,8.34,27.03,9.14,27.6,.8,402.72-31.36,402.72-31.36Z"/>
    <path class="cls-11" d="M68.4,247.03c-25-39.4-10.6,17-10.6,17,8.8,34.4,138.4-3.2,138.4-3.2,0,0,168.8-30.4,180-34.4s106.4,2.4,106.4,2.4l-5.6-16.8c-64.8-46.4-84-23.2-97.6-27.2s-11.2,5.6-14.4,6.4c-3.2,.8-42.4-24-48.8-23.2-6.4,.8-31.74-22.95-16.8,8.8,16,34-58.4,39.2-75.2,28-16.8-11.2,7.2,18.4,7.2,18.4,18.4,20-16,3.2-16,3.2-34.4-12.8-58.4,12.8-61.6,13.6-3.2,.8-8,4-8.8-2.4-.8-6.4-8.31-23.1-40,3.2-20,16.6-33.8-5.4-33.8-5.4l-2.8,11.6Z"/>
    <path class="cls-12" d="M317.51,169.77c-6.4,.8-31.77-22.94-16.8,8.8,16.6,35.2-58.4,39.2-75.2,28-16.8-11.2,7.2,18.4,7.2,18.4,18.4,20-16,3.2-16,3.2-34.4-12.8-58.4,12.8-61.6,13.6-3.2,.8-8,4-8.8-2.4-.8-6.4-8.18-22.93-40,3.2-21.24,17.35-34.73-4.11-34.73-4.11l-3.2,10.11c-25-39.8-9.93,18.51-9.93,18.51,8.8,34.4,139.05-4.51,139.05-4.51,0,0,168.8-30.4,180-34.4,11.2-4,105.53,2.33,105.53,2.33l-5.53-17.31c-64.8-46.4-83.2-22.62-96.8-26.62-13.6-4-11.2,5.6-14.4,6.4-3.2,.8-42.4-24-48.8-23.2Z"/>
    <path class="cls-30" d="M318.82,171.52c-6.4,.8-31.13-23.23-16.8,8.8,16.2,36.2-58.4,39.2-75.2,28-16.8-11.2,7.2,18.4,7.2,18.4,18.4,20-16,3.2-16,3.2-34.4-12.8-58.4,12.8-61.6,13.6-3.2,.8-8,4-8.8-2.4s-8.05-22.77-40,3.2c-22.47,18.09-35.65-2.82-35.65-2.82l-3.6,8.62c-23.8-39-9.25,20.02-9.25,20.02,8.8,34.4,139.71-5.82,139.71-5.82,0,0,168.8-30.4,180-34.4s104.65,2.25,104.65,2.25l-5.45-17.82c-64.8-46.4-82.4-22.04-96-26.04-13.6-4-11.2,5.6-14.4,6.4-3.2,.8-42.4-24-48.8-23.2Z"/>
    <path class="cls-29" d="M320.13,173.27c-6.4,.8-31.13-23.23-16.8,8.8,16.8,37.56-58.93,38.85-75.2,28-16.8-11.2,7.2,18.4,7.2,18.4,18.4,20-16,3.2-16,3.2-34.4-12.8-58.4,12.8-61.6,13.6-3.2,.8-8,4-8.8-2.4-.8-6.4-7.92-22.6-40,3.2-23.71,18.84-36.58-1.53-36.58-1.53l-4,7.13c-21.8-36.8-8.58,21.53-8.58,21.53,8.8,34.4,140.36-7.13,140.36-7.13,0,0,168.8-30.4,180-34.4,11.2-4,103.78,2.18,103.78,2.18l-5.38-18.33c-64.8-46.4-81.6-21.46-95.2-25.46-13.6-4-11.2,5.6-14.4,6.4-3.2,.8-42.4-24-48.8-23.2Z"/>
    <path class="cls-21" d="M321.44,175.01c-6.4,.8-30.62-23.45-16.8,8.8,16.8,39.2-58.4,39.2-75.2,28-16.8-11.2,7.2,18.4,7.2,18.4,18.4,20-16,3.2-16,3.2-34.4-12.8-58.4,12.8-61.6,13.6-3.2,.8-8,4-8.8-2.4s-7.78-22.43-40,3.2c-24.95,19.58-37.51-.24-37.51-.24l-4.4,5.64c-19.8-34.8-7.91,23.04-7.91,23.04,8.8,34.4,141.02-8.44,141.02-8.44,0,0,168.8-30.4,180-34.4s102.91,2.11,102.91,2.11l-5.31-18.84c-64.8-46.4-80.8-20.87-94.4-24.87s-11.2,5.6-14.4,6.4c-3.2,.8-42.4-24-48.8-23.2Z"/>
    <path class="cls-24" d="M322.74,176.76c-6.4,.8-32.36-22.65-16.8,8.8,19.2,38.8-58.4,39.2-75.2,28-16.8-11.2,7.2,18.4,7.2,18.4,18.4,20-16,3.2-16,3.2-34.4-12.8-58.4,12.8-61.6,13.6-3.2,.8-8,4-8.8-2.4-.8-6.4-7.65-22.26-40,3.2-26.18,20.33-38.44,1.06-38.44,1.06l-4.8,4.15c-18-33.2-7.24,24.55-7.24,24.55,8.8,34.4,141.67-9.75,141.67-9.75,0,0,168.8-30.4,180-34.4,11.2-4,102.04,2.04,102.04,2.04l-5.24-19.35c-64.8-46.4-80-20.29-93.6-24.29-13.6-4-11.2,5.6-14.4,6.4s-42.4-24-48.8-23.2Z"/>
    <path class="cls-23" d="M324.05,178.5c-6.4,.8-32.74-22.46-16.8,8.8,20.4,40-58.4,39.2-75.2,28-16.8-11.2,7.2,18.4,7.2,18.4,18.4,20-16,3.2-16,3.2-34.4-12.8-58.4,12.8-61.6,13.6-3.2,.8-8,4-8.8-2.4-.8-6.4-7.52-22.1-40,3.2-27.42,21.07-39.36,2.35-39.36,2.35l-5.2,2.65c-16-30.2-6.56,26.06-6.56,26.06,8.8,34.4,142.33-11.06,142.33-11.06,0,0,168.8-30.4,180-34.4s101.16,1.96,101.16,1.96l-5.16-19.85c-64.8-46.4-79.2-19.71-92.8-23.71-13.6-4-11.2,5.6-14.4,6.4-3.2,.8-42.4-24-48.8-23.2Z"/>
    <path class="cls-34" d="M325.36,180.25c-6.4,.8-33.84-21.88-16.8,8.8,22,39.6-58.4,39.2-75.2,28-16.8-11.2,7.2,18.4,7.2,18.4,18.4,20-16,3.2-16,3.2-34.4-12.8-58.4,12.8-61.6,13.6-3.2,.8-8,4-8.8-2.4-.8-6.4-7.39-21.93-40,3.2-28.65,21.82-40.29,3.64-40.29,3.64l-5.6,1.16c-14.4-28.4-5.89,27.56-5.89,27.56,8.8,34.4,142.98-12.36,142.98-12.36,0,0,168.8-30.4,180-34.4,11.2-4,100.29,1.89,100.29,1.89l-5.09-20.36c-64.8-46.4-78.4-19.13-92-23.13-13.6-4-11.2,5.6-14.4,6.4-3.2,.8-42.4-24-48.8-23.2Z"/>
    <path class="cls-32" d="M326.67,181.99c-6.4,.8-33.84-21.88-16.8,8.8,22,39.6-58.4,39.2-75.2,28-16.8-11.2,7.2,18.4,7.2,18.4,18.4,20-16,3.2-16,3.2-34.4-12.8-58.4,12.8-61.6,13.6-3.2,.8-8,4-8.8-2.4-.8-6.4-7.26-21.76-40,3.2-29.89,22.56-41.22,4.93-41.22,4.93l-6-.33c-13.6-26.4-5.22,29.07-5.22,29.07,8.8,34.4,143.64-13.67,143.64-13.67,0,0,168.8-30.4,180-34.4s99.42,1.82,99.42,1.82l-5.02-20.87c-64.8-46.4-77.6-18.55-91.2-22.55-13.6-4-11.2,5.6-14.4,6.4s-42.4-24-48.8-23.2Z"/>
    <path class="cls-26" d="M327.98,183.74c-6.4,.8-33.45-22.09-16.8,8.8,22,40.8-58.4,39.2-75.2,28-16.8-11.2,7.2,18.4,7.2,18.4,18.4,20-16,3.2-16,3.2-34.4-12.8-58.4,12.8-61.6,13.6-3.2,.8-8,4-8.8-2.4-.8-6.4-7.13-21.59-40,3.2-31.13,23.31-42.14,6.22-42.14,6.22l-6.4-1.82c-13-24-4.54,30.58-4.54,30.58,8.8,34.4,144.29-14.98,144.29-14.98,0,0,168.8-30.4,180-34.4s98.55,1.75,98.55,1.75l-4.95-21.38c-64.8-46.4-76.8-17.96-90.4-21.96s-11.2,5.6-14.4,6.4-42.4-24-48.8-23.2Z"/>
    <path class="cls-10" d="M329.29,185.48c-6.4,.8-32.38-22.64-16.8,8.8,21.2,42.8-58.4,39.2-75.2,28-16.8-11.2,7.2,18.4,7.2,18.4,18.4,20-16,3.2-16,3.2-34.4-12.8-58.4,12.8-61.6,13.6-3.2,.8-8,4-8.8-2.4-.8-6.4-7-21.42-40,3.2-32.37,24.05-43.07,7.51-43.07,7.51l-6.8-3.31c-12.8-23.2-3.87,32.09-3.87,32.09,8.8,34.4,144.95-16.29,144.95-16.29,0,0,168.8-30.4,180-34.4s97.67,1.67,97.67,1.67l-4.87-21.89c-64.8-46.4-76-17.38-89.6-21.38-13.6-4-11.2,5.6-14.4,6.4-3.2,.8-42.4-24-48.8-23.2Z"/>
    <path class="cls-9" d="M68.2,264.03c-12.8-22-3.2,33.6-3.2,33.6,8.8,34.4,145.6-17.6,145.6-17.6,0,0,168.8-30.4,180-34.4s96.8,1.6,96.8,1.6l-4.8-22.4c-64.8-46.4-75.2-16.8-88.8-20.8-13.6-4-11.2,5.6-14.4,6.4s-42.4-24-48.8-23.2c-6.4,.8-31.62-23.01-16.8,8.8,22.23,47.71-60.76,37.63-75.2,28-16.8-11.2,7.2,18.4,7.2,18.4,18.4,20-16,3.2-16,3.2-34.4-12.8-58.4,12.8-61.6,13.6-3.2,.8-8,4-8.8-2.4-.8-6.4-6.86-21.26-40,3.2-33.6,24.8-44,8.8-44,8.8l-7.2-4.8Z"/>
    <path d="M109.8,294.03s-7.2,11.6,13.6,24.8c0,0,1.4,1.4-16.6-2.8,0,0-6.2-2-7.8-12.4,0,0-4.8-4.4-9.6-10-4.8-5.6,20.4,.4,20.4,.4Z"/>
    <path class="cls-37" d="M249.8,246.43s17.7,26.82,17.1,31.6c-1.3,10.4-1.5,20,1.7,24,3.2,4,12,37.2,12,37.2,0,0-.4,1.2,12-36.8,0,0,11.6-16-8.4-34.4,0,0-35.2-28.8-34.4-21.6Z"/>
    <path d="M129.8,320.83s11.2,7.2-3.2,38.4l6.4-2.4s-.8,11.2-4,13.6l7.2-3.2s4.8,8,.8,12.8c0,0,16.8,8,16,14.4,0,0,6.4-8,2.4-14.4-4-6.4-11.2-2.4-10.4-20.8l-8.8,3.2s5.6-8.8,5.6-15.2l-8,2.4s15.47-26.58,4.8-28c-6-.8-8.8-.8-8.8-.8Z"/>
    <path class="cls-37" d="M162.2,337.63s2.8-4.4,0-3.6c-2.8,.8-34,15.6-40,25.2,0,0,34.4-24.4,40-21.6Z"/>
    <path class="cls-37" d="M172.6,345.63s2.8-4.4,0-3.6c-2.8,.8-34,15.6-40,25.2,0,0,34.4-24.4,40-21.6Z"/>
    <path class="cls-37" d="M185.8,330.43s2.8-4.4,0-3.6-34,15.6-40,25.2c0,0,34.4-24.4,40-21.6Z"/>
    <path class="cls-37" d="M162.6,374.03s0-6-2.8-5.2c-2.8,.8-38.8,18.4-44.8,28,0,0,42-25.6,47.6-22.8Z"/>
    <path class="cls-37" d="M163.8,363.23s1.2-4.8-1.6-4c-2,0-28.4,11.6-34.4,21.2,0,0,29.6-21.6,36-17.2Z"/>
    <path class="cls-37" d="M149.4,410.83l-10,7.6s10.4-7.6,14-6.4c0,0-6.8,11.2-7.6,16.4,0,0,10.4-12.8,16-12.4,0,0,7.6,.4,7.6,11.2,0,0,5.6-10.4,8.8-10,0,0,1.2,6.4,0,13.2,0,0,4-7.6,8-6,0,0,6.4-2,5.6,9.6,0,0,0,10.4-.8,13.2,0,0,5.6-26.4,8-26.8,0,0,8-1.2,12.8,7.6,0,0-4-7.6,.8-5.6,0,0,10.8,1.6,14,8.4,0,0-6.8-12-1.2-8.8,0,0,6.8,0,8,6.4,0,0,8.4,21.2,10.4,22.8,0,0-7.6-21.6-6-21.6,0,0-2-12,3.2,2.8,0,0-3.2-14,2.4-13.2,5.6,.8,10,10.8,18.4,8.4,0,0,9.6,5.6,11.6-63.6l-124,46.8Z"/>
    <path d="M154.2,318.03s14.8-6,54.8,0c0,0,7.2,.4,14-8.4s33.6-16,40-14l9.6,6.4,.8,1.2s12.4,10.4,12.8,18c.4,7.6-14.4,55.6-24,71.6-9.6,16-19.2,28.4-38.4,26,0,0-20.8-4-46.4,0,0,0-29.2-1.6-32-9.6-2.8-8,11.2-23.2,11.2-23.2,0,0,4.4-8.4,3.2-22.8-1.2-14.4-.8-42.4-5.6-45.2Z"/>
    <path class="cls-39" d="M176.2,320.03c8.4,18.4-21.2,83.6-21.2,83.6-2,1.6,12.66,7.65,22.8,5.2,10.95-2.64,51.2,1.6,51.2,1.6,23.6-15.6,36.4-60,36.4-60,0,0,10.4-24-7.2-27.2-17.6-3.2-82-3.2-82-3.2Z"/>
    <path class="cls-33" d="M174.17,350.93c3.33-12.79,4.91-24.59,2.03-30.9,0,0,62.4,6.4,73.6-14.4,4.24-7.88,19,22.8,18.6,32.4,0,0-63,14.4-77.8,3.2l-16.43,9.7Z"/>
    <path class="cls-27" d="M178.6,367.23s2,7.2-.4,11.2c0,0-1.6,.8-2.8,1.2,0,0,1.2,3.6,7.2,5.2,0,0,2,4.4,4.4,4.8,2.4,.4,7.2,6,11.2,4.8,4-1.2,15.2-5.2,15.2-5.2,0,0,5.6-3.2,14.4,.4,0,0,2.38-.8,2.8-4.8,.5-4.7,3.6-8.4,5.6-10.4s11.6-14.8,10.4-15.2c-1.2-.4-68,8-68,8Z"/>
    <path class="cls-5" d="M174.2,318.83s-2.8,22.4,.4,30.8c3.2,8.4,2.4,10.4,1.6,14.4s3.6,14,9.2,20l12,1.6s15.2-3.6,24.4-.8c0,0,8.99,1.34,12.4-13.6,0,0,4.8-6.4,12-9.2s14.4-44.4,10.4-52.4-18.4-12.4-34.4,3.2-18-1.2-48,6Z"/>
    <path class="cls-2" d="M175.8,393.63s-.8-2-5.2-2.4c0,0-22.4-3.6-30.8-16,0,0-6.8-5.6-2.4,6,0,0,10.4,20.4,17.2,23.2,0,0,16.4,4,21.2-10.8Z"/>
    <path class="cls-1" d="M255.74,329.66c.66-7.91,2.61-16.52,.86-20.03-6.45-12.89-23.42-7.51-34.4,3.2-16,15.6-18-1.2-48,6,0,0-1.74,13.96-.9,23.98,0,0,37.31-11.58,38.1-5.98,0,0,1.6-3.2,10.8-3.2s31.94-1.17,33.54-3.97Z"/>
    <path class="cls-17" d="M212.6,319.63s4.8,4.8,1.2,14.4c0,0-14.4,16-12.4,30"/>
    <path class="cls-2" d="M164.6,404.43s-4.4-12.8,4.4-6c0,0,4.8,2,3.6,3.6-1.2,1.6-6.8,5.6-8,2.4Z"/>
    <path class="cls-2" d="M169.64,405.63s-3.52-10.24,3.52-4.8c0,0,4.42,2.45,2.88,2.88-4.56,1.28,0,3.84-6.4,1.92Z"/>
    <path class="cls-2" d="M174.44,405.63s-3.52-10.24,3.52-4.8c0,0,4.38,2.31,2.88,2.88-3.36,1.28,0,3.84-6.4,1.92Z"/>
    <path class="cls-2" d="M181.04,405.83s-3.52-10.24,3.52-4.8c0,0,4.38,2.33,2.88,2.88-2.96,1.08,0,3.84-6.4,1.92Z"/>
    <path class="cls-2" d="M187.52,405.75s-3.52-10.24,3.52-4.8c0,0,3.84,1.6,2.88,2.88-.96,1.28,0,3.84-6.4,1.92Z"/>
    <path class="cls-2" d="M194.2,406.43s-4.8-12.4,4.4-6c0,0,4.8,2,3.6,3.6-1.2,1.6,0,4.8-8,2.4Z"/>
    <path class="cls-15" d="M165.8,389.23s13.2-2.8,19.2,.4c0,0,6,1.2,7.2,.8,1.2-.4,4.4-.8,4.4-.8"/>
    <path class="cls-15" d="M199.8,398.03s12-13.6,24-9.2c7.02,2.57,6-.8,6.8-3.6,.8-2.8,1-7,6-10"/>
    <path class="cls-2" d="M217,382.03s-4-10.8-6.8,2c-2.8,12.8-6,16.4-7.6,19.2,0,0,0,5.2,8.4,4.8,0,0,10.8-.4,11.2-3.2,.4-2.8-1.2-14.4-5.2-22.8Z"/>
    <path class="cls-15" d="M231,389.23s3.6-2.4,6-1.2"/>
    <path class="cls-15" d="M237.5,372.83s2.9-4.9,7.7-5.7"/>
    <path class="cls-19" d="M158.2,409.63s18,3.2,22.4,1.6c0,0,8.8,0,.4,2,0,0-12.8,0-20.8-1.2,0,0-11.6-5.6-2-2.4Z"/>
    <path class="cls-2" d="M172.2,316.43s17.6,0,19.6,.8c0,0,7.2,30.8,3.6,38.4,0,0-1.2,2.8-4-2.8,0,0-18.4-32.8-21.6-34.8s1.2-1.6,2.4-1.6Z"/>
    <path class="cls-2" d="M95.1,313.73s8.9,1.7,21.5,4.3c0,0,4.8,22.4,8,27.2,3.2,4.8-.4,4.8-4,2-3.6-2.8-18.4-16.8-20.4-21.2-2-4.4-5.1-12.3-5.1-12.3Z"/>
    <path class="cls-2" d="M116.96,318.25s5.8,1.55,6.81,3.76c1.01,2.21-1.2,5.51-1.2,5.51,0,0-1,3.31-2.2,1.14-1.2-2.16-4.07-9.82-3.41-10.42Z"/>
    <path d="M117,318.03s3.6,5.2,7.2,5.2,3.98-.41,6.8,.2c4.6,1,4.2-1,10.8,.2,2.64,.48,5.2-.4,8,.8,2.8,1.2,6,.4,7.2-1.6s6-6.2,6-6.2c0,0-12.8,1.8-15.6,2.6,0,0-22.4,1.2-30.4-1.2Z"/>
    <path class="cls-2" d="M161.6,318.23s-6.45,3.5-6.85,5.9c-.4,2.4,5.25,6.1,5.25,6.1,0,0,2.75,4.6,3.35,2.2,.6-2.4-.95-13.8-1.75-14.2Z"/>
    <path class="cls-2" d="M124.11,323.69s7.01,11.19,7.22-.02c0,0,.56-1.26-1.2-1.28-6.08-.08-4.55-4.18-6.02,1.3Z"/>
    <path class="cls-2" d="M131.29,323.94s7.92,11.19,7.28-.09c0,0,0-.33-1.75-.49-4.75-.41-4.4-4.93-5.54,.58Z"/>
    <path class="cls-2" d="M138.5,323.95s7.96,10.63,7.29,.96c0,0,.12-1.23-1.53-1.53-3.89-.71-4.1-3.96-5.76,.57Z"/>
    <path class="cls-2" d="M145.38,324.03s7.9,11.56,8.25,1.78c0,0,1.64-1.38-.1-1.6-5.82-.74-5.02-5.19-8.15-.18Z"/>
    <path class="cls-45" d="M109.21,327.56l-7.66-1.53c-2.6-5-4.7-11.15-4.7-11.15,0,0,6.35,1,18.85,3.8,0,0,.88,3.32,2.35,9.11l-8.84-.23Z"/>
    <path class="cls-45" d="M174.27,322.9c-1.67-2.51-2.98-4.26-3.63-4.67-3.01-1.88,1.13-1.51,2.26-1.51,0,0,16.57,0,18.45,.75,0,0,.52,2.24,1.21,5.63,0,0-10.09-2.01-18.29-.21Z"/>
    <path class="cls-11" d="M227.88,184.75c27.72,3.96,53.24-31.68,55-41.36,1.76-9.68-8.36-21.56-8.36-21.56,1.32-3.08-3.52-17.16-8.8-26.4s-21.18-8.27-38.72-9.24c-15.84-.88-34.32,22.44-35.64,24.2-1.32,1.76,4.84,40.04,6.16,45.76,1.32,5.72-1.32,32.12-1.32,32.12,34.24-9.1,3.96-7.48,31.68-3.52Z"/>
    <path class="cls-38" d="M192.09,111.04c-1.3,1.73,4.75,39.31,6.05,44.93,1.3,5.62-1.3,31.54-1.3,31.54,32.67-8.88,3.89-7.34,31.1-3.46,27.22,3.89,52.27-31.1,54-40.61,1.73-9.5-8.21-21.17-8.21-21.17,1.3-3.02-3.46-16.85-8.64-25.92-5.18-9.07-20.8-8.11-38.02-9.07-15.55-.86-33.7,22.03-34.99,23.76Z"/>
    <path class="cls-31" d="M192.81,111.68c-1.27,1.7,4.66,38.58,5.94,44.1,1.27,5.51-1.27,30.95-1.27,30.95,31.4-9.16,3.82-7.21,30.53-3.39,26.71,3.82,51.31-30.53,53-39.86,1.7-9.33-8.06-20.78-8.06-20.78,1.27-2.97-3.39-16.54-8.48-25.44s-20.41-7.97-37.31-8.9c-15.26-.85-33.07,21.62-34.34,23.32Z"/>
    <path class="cls-40" d="M193.54,112.33c-1.25,1.66,4.58,37.86,5.82,43.27,1.25,5.41-1.25,30.37-1.25,30.37,29.44-9.04,3.74-7.07,29.95-3.33,26.21,3.74,50.34-29.95,52-39.1,1.66-9.15-7.9-20.39-7.9-20.39,1.25-2.91-3.33-16.22-8.32-24.96-4.99-8.74-20.02-7.81-36.61-8.74-14.98-.83-32.45,21.22-33.7,22.88Z"/>
    <path class="cls-44" d="M194.27,112.98c-1.22,1.63,4.49,37.13,5.71,42.43,1.22,5.3-1.22,29.78-1.22,29.78,27.87-8.92,3.67-6.94,29.38-3.26,25.71,3.67,49.37-29.38,51-38.35,1.63-8.98-7.75-19.99-7.75-19.99,1.22-2.86-3.26-15.91-8.16-24.48-4.9-8.57-19.64-7.67-35.9-8.57-14.69-.82-31.82,20.81-33.05,22.44Z"/>
    <path class="cls-9" d="M228.2,181.23c25.2,3.6,48.4-28.8,50-37.6,1.6-8.8-7.6-19.6-7.6-19.6,1.2-2.8-3.2-15.6-8-24-4.8-8.4-19.25-7.51-35.2-8.4-14.4-.8-31.2,20.4-32.4,22-1.2,1.6,4.4,36.4,5.6,41.6,1.2,5.2-1.2,29.2-1.2,29.2,25.5-8.6,3.6-6.8,28.8-3.2Z"/>
    <path class="cls-37" d="M274.6,147.23s-27.8,7.6-39.4,6c0,0-15.8-6.6-24.6,15.2,0,0-3.6,7.2-5.6,9.2s69.6-30.4,69.6-30.4Z"/>
    <path d="M278.4,145.03s-29,12.2-39,11.8c0,0-16.4-4.6-24.8,10,0,0-8.4,9.2-11.6,10.8,0,0-.4,1.6,6-2.4l10.4,5.2s14.8,9.6,24.4-6.4c0,0,4-11.2,4-13.2s21.2-7.6,22.8-8c1.6-.4,8.2-4.6,7.8-7.8Z"/>
    <path class="cls-13" d="M231,180.94c-6.87,0-15.25-3.87-15.25-10.11s8.37-12.51,15.25-12.51,12.45,5.06,12.45,11.31-5.57,11.31-12.45,11.31Z"/>
    <path class="cls-22" d="M227.37,164.26c-4.85,.72-9.93,2.23-9.86,2.01,1.54-4.62,7.9-7.95,13.49-7.95,4.3,0,8.08,1.98,10.32,4.99,0,0-5.32-.33-13.94,.95Z"/>
    <path class="cls-9" d="M239.4,164.03s-4.4-3.2-4.4-1c0,0,3.6,4.4,4.4,1Z"/>
    <path d="M229.4,172.15c-2.5,0-4.53-2.03-4.53-4.53s2.03-4.53,4.53-4.53,4.53,2.03,4.53,4.53-2.03,4.53-4.53,4.53Z"/>
    <path class="cls-11" d="M125.4,158.83s-3.2-21.2-.8-25.6c0,0,10.8-10,10.4-13.6,0,0-.4-18-1.6-18.8-1.2-.8-8.8-6.8-14.8-.4,0,0-10.4,18-9.6,24.4v2s-7.6-.4-9.2,1.6c0,0-1.2,5.2-2.4,5.6,0,0-2.8,2.4-.8,5.2,0,0-2,2.4-1.6,6.4l7.6,4s2,14.4,12.8,19.6c4.84,2.33,8-4.4,10-10.4Z"/>
    <path class="cls-9" d="M124.4,156.99s-2.88-19.08-.72-23.04c0,0,9.72-9,9.36-12.24,0,0-.36-16.2-1.44-16.92-1.08-.72-7.92-6.12-13.32-.36,0,0-9.36,16.2-8.64,21.96v1.8s-6.84-.36-8.28,1.44c0,0-1.08,4.68-2.16,5.04,0,0-2.52,2.16-.72,4.68,0,0-1.8,2.16-1.44,5.76l6.84,3.6s1.8,12.96,11.52,17.64c4.35,2.09,7.2-3.96,9-9.36Z"/>
    <path class="cls-41" d="M132.95,101.82c-1.09-.86-8.58-6.63-14.43-.39,0,0-10.14,17.55-9.36,23.79v1.95s-7.41-.39-8.97,1.56c0,0-1.17,5.07-2.34,5.46,0,0-2.73,2.34-.78,5.07,0,0-1.95,2.34-1.56,6.24l7.41,3.9s1.95,14.04,12.48,19.11c4.71,2.27,7.8-4.29,9.75-10.14,0,0-3.12-20.67-.78-24.96,0,0,10.53-9.75,10.14-13.26,0,0-.39-17.55-1.56-18.33Z"/>
    <path class="cls-35" d="M132.5,102.81c-.98-.92-8.36-6.46-14.06-.38,0,0-9.88,17.1-9.12,23.18v1.9s-7.22-.38-8.74,1.52c0,0-1.14,4.94-2.28,5.32,0,0-2.66,2.28-.76,4.94,0,0-1.9,2.28-1.52,6.08l7.22,3.8s1.9,13.68,12.16,18.62c4.59,2.21,7.6-4.18,9.5-9.88,0,0-3.04-20.14-.76-24.32,0,0,10.26-9.5,9.88-12.92,0,0-.38-17.1-1.52-17.86Z"/>
    <path class="cls-28" d="M132.05,103.8c-.87-.98-8.14-6.29-13.69-.37,0,0-9.62,16.65-8.88,22.57v1.85s-7.03-.37-8.51,1.48c0,0-1.11,4.81-2.22,5.18,0,0-2.59,2.22-.74,4.81,0,0-1.85,2.22-1.48,5.92l7.03,3.7s1.85,13.32,11.84,18.13c4.47,2.15,7.4-4.07,9.25-9.62,0,0-2.96-19.61-.74-23.68,0,0,9.99-9.25,9.62-12.58,0,0-.37-16.65-1.48-17.39Z"/>
    <path class="cls-9" d="M124.4,156.89s-2.88-18.98-.72-22.94c0,0,9.72-9,9.36-12.24,0,0-.36-16.2-1.44-16.92-.76-1.04-7.92-6.12-13.32-.36,0,0-9.36,16.2-8.64,21.96v1.8s-6.84-.36-8.28,1.44c0,0-1.08,4.68-2.16,5.04,0,0-2.52,2.16-.72,4.68,0,0-1.8,2.16-1.44,5.76l6.84,3.6s1.8,12.96,11.52,17.64c4.35,2.09,7.2-4.06,9-9.46Z"/>
    <path class="cls-37" d="M121.3,150.63s-21.6-10.2-22.5-11c0,0,9.1,8.2,9.9,8.2s12.6,2.8,12.6,2.8Z"/>
    <path d="M104.2,144.43s18.4,3.6,18.4,8c0,2.91-.24,16.33-5.6,14.8-8.4-2.4-4.8-16.8-12.8-22.8Z"/>
    <path class="cls-13" d="M112.6,148.23s8.98,1.47,10,4.2c.6,1.6,1.26,9.91-4.2,11-4.55,.91-6.78-9.31-5.8-15.2Z"/>
    <path d="M198.59,190.78c-.5-1.74,.81-1.61,2.61-2.15,2-.6,14.2-4.4,15-7,.8-2.6,14,1.8,14,1.8,1.8,.8,6.2,3.4,6.2,3.4,4.8,1.2,11.4,1.6,11.4,1.6,2.4,1,5.8,3.8,5.8,3.8,14.6,10.2,27,3,27,3,20-6.6,14-23.8,14-23.8-3-9,.2-12.4,.2-12.4,.2-3.8,7.4,2.6,7.4,2.6,2.6,4.2,3.4,9.2,3.4,9.2,8,11.2,4.6-6.6,4.6-6.6,.2-1-2.6-4.6-2.6-5.8s-1.8-4.6-1.8-4.6c-3-3.4-.6-10.4-.6-10.4,1.8-13.8-.4-12-.4-12-1.2-1.8-10.4,8.2-10.4,8.2-2.2,3.4-8.2,5-8.2,5-2.8,1.8-6.2,.4-6.2,.4-2.6-.4-8.2,6.6-8.2,6.6,2.8-.2,5.2,4.2,7.6,4.4,2.4,.2,4.2-2.4,5.8-3,1.6-.6,4.4,5.2,4.4,5.2,.4,2.6-5.2,7.4-5.2,7.4-.4,4.6-2,3-2,3-3-.6-4.2,3.2-5.2,7.8-1,4.6-5.2,5-5.2,5-1.6,7.4-2.8,4.4-2.8,4.4-.2-5.6-6.2,.2-6.2,.2-1.2,2-5.8-.2-5.8-.2-6.8-2-4.4-4-4.4-4,1.8-2.2,13,0,13,0,2.2-1.6-5.8-5.6-5.8-5.6-.6-1.8,.4-6.2,.4-6.2,1.2-3.2,8-8.8,8-8.8,9.4-1.2,6.6-2.8,6.6-2.8-6.2-5.2-12,2.4-12,2.4-2.2,6.2-19.6,21.2-19.6,21.2-4.8,3.4-2.2-3.4-6.2,0-4,3.4-24.6-5.6-24.6-5.6-11.56-1.19-14.29,14.55-17.82,11.43,0,0,5.42,8.52,3.82,2.92Z"/>
    <path d="M393.4,24.43s-25.6,8-28.4,26.8c0,0-2.4,22.8,18,40.4,0,0,.4,6.4,2.4,9.6,0,0-1.6,4.8,17.2-2.8l27.2-8.4s6.4-2.4,11.6-11.2c5.2-8.8,20.4-27.6,16.8-52.8,0,0,1.2-11.2-4.8-11.6,0,0-8.4-1.6-15.6,6,0,0-6.8,3.2-9.2,2.8l-35.2,1.2Z"/>
    <path d="M448.02,23.44s2.1-8.93-2.74-4.09c0,0-7.04,5.72-14.52,5.72,0,0-14.52,2.2-18.92,15.4,0,0-3.96,26.84,3.96,32.56,0,0,4.84,7.48,11.88,.88,7.04-6.6,22.54-36.83,20.34-50.47Z"/>
    <path class="cls-20" d="M447.65,23.8s2.09-8.74-2.66-3.99c0,0-6.91,5.62-14.26,5.62,0,0-14.26,2.16-18.58,15.12,0,0-3.89,26.35,3.89,31.97,0,0,4.75,7.34,11.66,.86,6.91-6.48,22.1-36.18,19.94-49.58Z"/>
    <path class="cls-43" d="M447.27,24.15s2.08-8.56-2.58-3.89c0,0-6.78,5.51-13.99,5.51,0,0-13.99,2.12-18.23,14.84,0,0-3.82,25.86,3.82,31.38,0,0,4.66,7.21,11.45,.85,6.79-6.36,21.67-35.54,19.54-48.68Z"/>
    <path class="cls-36" d="M446.9,24.51s2.07-8.37-2.51-3.8c0,0-6.66,5.41-13.73,5.41,0,0-13.73,2.08-17.89,14.56,0,0-3.74,25.38,3.74,30.78,0,0,4.58,7.07,11.23,.83,6.66-6.24,21.23-34.89,19.15-47.79Z"/>
    <path class="cls-37" d="M446.52,24.87s2.06-8.19-2.43-3.7c0,0-6.53,5.3-13.46,5.3,0,0-13.46,2.04-17.54,14.28,0,0-3.67,24.89,3.67,30.19,0,0,4.49,6.94,11.02,.82,6.53-6.12,20.79-34.25,18.75-46.89Z"/>
    <path class="cls-9" d="M446.15,25.23s2.05-8-2.35-3.6c0,0-6.4,5.2-13.2,5.2,0,0-13.2,2-17.2,14,0,0-3.6,24.4,3.6,29.6,0,0,4.4,6.8,10.8,.8,6.4-6,20.35-33.6,18.35-46Z"/>
    <path class="cls-14" d="M234.6,228.43s-20.4-19.2-28.4-20c0,0-34.4-4-49.2,14,0,0,17.6-20.4,45.2-14.8,0,0-21.6-4.4-34-1.2,0,0-16.8,0-26.4,14l-2.8,4.8s4-14.8,22.4-20.8c0,0,22.8-4.8,33.6,0,0,0-21.6-6.8-31.6-4.8,0,0-30.4-2.4-43.2,24,0,0,4-14.4,18.8-21.6,0,0,13.6-8.8,34-6,0,0,14.4,3.2,19.6,5.6,5.2,2.4,4-.4-4.4-5.2,0,0-5.6-10-19.6-9.6,0,0-42.8,3.6-53.2,15.6,0,0,13.6-11.2,24-14,0,0,22.4-8,30.8-7.2,0,0,24.8,1,32.4-3,0,0-11.2,5-8,8.2,3.2,3.2,10,10.8,10,12s24.2,23.3,27.8,27.7l2.2,2.3Z"/>
    <path class="cls-37" d="M373,422.43s-15.5-36.5-28-46c0,0,26,16,29.5,34,0,0,0,10-1.5,12Z"/>
    <path class="cls-37" d="M420,429.93s-26.5-55-45-79c0,0,43.5,37.5,48.5,64l.5,5.5-3-2.5s-.5,9-1,12Z"/>
    <path class="cls-37" d="M476.5,381.43s-62.5-59.5-64-62c0,0,60.5,66,63.5,73.5,0,0-2-9,.5-11.5Z"/>
    <path class="cls-37" d="M288,424.93s19.5-52,38.5-29.5c0,0,15,10,14.5,13,0,0-4-6.5-22-6,0,0-19-3-31,22.5Z"/>
    <path class="cls-37" d="M478.5,297.43s-45-28.5-52.5-30c-11.81-2.36,49.5,29,54.5,39.5,0,0,2-2.5-2-9.5Z"/>
    <path d="M327.8,404.03s20.4-2,27.2-8.8l4.4,3.6,17.6-38.4,3.6,5.2s14.4-14.8,13.6-22.8,12.8,6,12.8,6c0,0-.8-11.6,6.4-4.8,0,0-2.4-15.6,6-7.6,0,0-10.54-30.16,12-4.4,5.6,6.4,1.2-.4,1.2-.4,0,0-26-48-4.4-33.6,0,0,2-22.8,.8-27.2-1.2-4.4-3.2-26.8-8-32-4.8-5.2,.4-6.8,6-1.6,0,0-11.2-24,2-12,0,0-3.6-15.2-8-18,0,0-5.6-17.2,9.6-6.4,0,0-4.4-12.4-7.6-15.6,0,0-11.6-27.6-4.4-22.8l4.4,3.6s-6.8-14-.4-9.6c6.4,4.4,6.4,4,6.4,4,0,0-21.2-33.2-.8-15.6,0,0-8.16-13.92-11.6-20.8,0,0-18.8-20.4-4.4-14l4.8,1.6s-8.8-10-16.8-11.6c-8-1.6,2.4-8,8.8-6,6.4,2,22,9.6,22,9.6,0,0,12.8,18.8,16.8,19.2,0,0-20-7.6-14,.4,0,0,14.4,14,7.2,13.6,0,0-6,7.2-1.2,16,0,0-18.46-18.39-3.6,7.2l6.8,16.4s-24.4-24.8-13.2-2.8c0,0,17.2,23.6,19.2,24,2,.4,6.4,9.2,6.4,9.2l-4.4-2,5.2,8.8s-11.2-12-5.2,1.2l5.6,14.4s-20.4-22-6.8,7.6c0,0-16.4-5.2-7.6,12,0,0-1.6,16-1.2,21.2s1.6,33.6-2.8,41.6,6,27.2,8,31.2,5.6,14.8-3.2,5.6c-8.8-9.2-4.4-3.6-2.4,5.2,2,8.8,8,24.4,7.2,30,0,0-1.2,1.2-4.4-2.4,0,0-14.8-22.8-13.2-8.4,0,0-1.2,8-4.4,16.8,0,0-3.2,10.8-3.2,2,0,0-3.2-16.8-6-9.2-2.8,7.6-6.4,13.6-9.2,16-2.8,2.4-8-20.4-9.2-10,0,0-12-12.4-16.8,4l-11.6,16.4s-.4-12.4-1.6-6.4c0,0-30,6-40.4,1.6Z"/>
    <path d="M293.4,47.23s-11.6-8-15.6-7.6c-4,.4,27.6-8.8,68.8,18.8,0,0,4.8,2.8,8.4,2.4,0,0,3.2,2.4,.4,6,0,0-8.8,9.6,2.4,20.8,0,0,18.4,6.8,12.8-2,0,0,10.8,4,13.2,8,2.4,4,1.2,0,1.2,0,0,0-6.4-7.2-12.4-12.4,0,0-5.2-2-8-10.4s-5.2-18.4-.8-21.6c0,0-4,4.4-3.2,.4s4.4-7.6,6-8c1.6-.4,18-16.2,24.8-16.6,0,0-9.2,1.4-12.2,.4s-29.6-12.4-35.6-13.6c0,0-16.8-6.6-4.8-4.6,0,0,35.8,3.8,54,17,0,0-7.2-8.4-25.6-15.4,0,0-22.2-12.6-57.4-7.6,0,0-17.8,3.2-25.6,5,0,0-2.6-.6-3.2-1-.6-.4-12.4-9.4-40-2.4,0,0-17,4.6-25.6,9.4,0,0-15.2,1.2-18.8,4.4,0,0-18.6,14.6-20.6,15.4-2,.8-13.4,8.4-14.2,8.8,0,0,24.6-6.6,27-9,2.4-2.4,19.8-5,22.2-3.6,2.4,1.4,10.8,.8,1.2,1.4,0,0,75.6,14.8,76.4,16.8,.8,2,4.8,.8,4.8,.8Z"/>
    <path class="cls-11" d="M364.8,38.03s-10.2-7.4-12.2-7.4-14.4-10.2-18.6-9.8c-4.2,.4-16.4-9.6-43.8-1.4,0,0-.6-2,3-2.8,0,0,6.4-2.2,6.8-2.8,0,0,20.2-4.2,27.4-.6,0,0,9.2,2.6,15.4,8.8,0,0,11.2,3.2,14.4,2.2,0,0,8.8,2.2,9.2,4,0,0,5.8,3,4,5.6,0,0,.4,1.6-5.6,4.2Z"/>
    <path class="cls-11" d="M352.33,35.92c.81,.63,1.83,.73,2.43,1.54,.23,.31-.06,.64-.37,.74-1.04,.32-2.1-.25-3.24,.33-.4,.21-1.04,.03-1.6-.12-1.63-.44-3.46-.47-5.15,.22-1.99-1.13-4.35-.54-6.43-1.55-.06-.03-.28,.32-.35,.29-3.05-1.14-6.79-.86-9.22-3.15-2.43-.41-4.79-.87-7.21-1.55-1.82-.51-3.23-1.5-4.85-2.33-1.38-.71-2.83-1.23-4.37-1.6-1.86-.45-3.69-.34-5.59-.86-.09-.03-.29,.32-.37,.29-.32-.11-.61-.69-.78-.64-1.68,.52-3.17-.45-4.83-.11-1.18-1.22-2.91-.98-4.45-1.42-2.96-.85-6.12,.42-9.15-.58,4.11-1.84,8.8-.61,12.86-2.68,2.33-1.19,4.99-.08,7.56-.84,.49-.14,1.18-.35,1.58,.32,.13-.14,.32-.37,.37-.35,2.45,1.16,4.76,2.43,7.25,3.5,.34,.15,.87-.09,1.12,.12,1.52,1.22,3.46,1.11,4.85,2.33,1.7-.5,3.49-.12,5.22-.75,.08-.03,.31,.31,.34,.29,1.13-.75,2.29-.48,3.18-.17,.34,.11,1,.36,1.31,.44,1.13,.28,1.98,.76,3.16,.94,.11,.02,.3-.32,.37-.29,1.12,.44,2.17,.38,2.82,1.55,.14-.14,.3-.37,.38-.35,1.03,.34,1.68,1.09,2.78,1.33,.49,.11,1.1,.73,1.67,.91,2.39,.73,4.24,2.26,6.43,3.15,.76,.31,1.64,.54,2.27,1.04Z"/>
    <path class="cls-11" d="M275.69,21.69c-2.52-1.72-4.89-2.83-7.33-4.62-.18-.13-.54,.04-.74-.08-1.01-.61-1.89-1.19-2.88-1.89-.54-.38-1.36-.37-1.87-.63-2.54-1.29-5.17-1.85-7.68-3.04,.68-.64,1.8-.39,2.4-1.2,.19,.28,.43,.56,.79,.37,1.68-.9,3.53-1.06,5.2-.97,1.7,.09,3.42,.4,5.2,.67,.31,.05,.51,.57,.83,.67,2.23,.66,4.62,.14,6.74,.98,1.59,.63,3.16,1.45,4.4,2.73,.25,.26-.07,.56-.35,.76,.39-.11,.66,.1,.77,.41,.08,.24,.08,.54,0,.78-.11,.31-.39,.41-.76,.46-1.41,.19,.37-1.19-.33-.74-1.27,.81-.53,2.22-1.27,3.49-.28-.19-.51-.41-.4-.8,.23,.52-.37,.81-.54,1.13-.38,.73-1.28,2.14-2.17,1.53Z"/>
    <path class="cls-11" d="M243.2,29.04c-3.15-.79-6.2-.68-9.22-1.96-.07-.03-.29,.32-.35,.29-1.37-.59-2.28-1.56-3.36-2.61-.91-.89-2.57-.5-3.85-.99-.32-.12-.53-.64-.83-.67-1.22-.16-2.15-1.11-3.19-1.68,2.34-.79,4.75-.76,7.21-1.15,.11-.02,.26,.3,.39,.3s.27-.22,.4-.35c.19,.28,.5,.61,.75,.35,.55-.54,1.1-.35,1.64-.31,.14,0,.27,.31,.4,.31s.27-.31,.4-.31c.14,0,.27,.31,.4,.31s.27-.22,.4-.35c.69,.78,1.58,.23,2.4,.41,1.04,.23,1.31,1.38,2.38,1.67,4.72,1.3,8.85,3.45,13.21,5.54,.31,.15,.52,.39,.41,.78,.27,0,.58-.09,.77,.04,1.06,.73,2.1,1.28,2.8,2.38,.22,.34-.11,.75-.35,.69-4.43-1-8.43-1.6-12.82-2.71Z"/>
    <path class="cls-11" d="M229.34,73.25c-1.59-1.22-2.18-3.25-3.3-5.04-.21-.34,.06-.65,.38-.74,.56-.16,1.1,.32,1.51,.52,1.74,.86,3.28,2.1,5.28,2.24,1.99,2.23,6.25,2.62,6.26,6,0,.86-1.43-.06-1.86,.8-2.45-1-4.84-.9-7.22-2.37-.62-.38-.29-.83-1.04-1.41Z"/>
    <path class="cls-11" d="M201.8,20.67c.14,0,7.17,.23,7.15,.35-.05,.31-7.77,1.36-8.14,1.19-.16-.08-7.68,2.35-7.81,2.22,.27-.14,8.53-3.76,8.8-3.76Z"/>
    <path d="M217.2,30.43s-14.8,1.8-19.2,3-23,8.8-26,10.8c0,0-13.4,5.4-30.4,25.4,0,0,7.6-3.4,9.8-6.2,0,0,13.6-12.6,13.4-10,0,0,12.2-8.6,11.6-6.4,0,0,24.4-11.2,22.4-8,0,0,21.6-4.6,20.6-2.6,0,0,18.8,4.4,16,4.6,0,0-5.8,1.2,.6,4.8,0,0-3.4,4.4-8.8,.4-5.4-4-2.4-1.8-7.4-.8,0,0-2.6,.8-7.2-3.2,0,0-5.6-4.6-14.4-1,0,0-30.6,12.6-32.6,13.2,0,0-3.6,2.8-6,6.4,0,0-5.8,4.4-8.8,5.8,0,0-12.8,11.6-14,13,0,0-3.4,5.2-4.2,5.6,0,0,6.4-3.8,8.4-5.8,0,0,14-10,19.4-10.8,0,0,4.4-3,5.2-4.4,0,0,14.4-9.2,18.6-9.2,0,0,9.2,5.2,11.6-1.8,0,0,5.8-1.8,11.4-.6,0,0,3.2-2.6,2.4-4.8,0,0,1.6-1.8,2.6,2,0,0,3.4,3.6,8.2,1.6,0,0,4-.2,2,2.2,0,0-4.4,3.8-16.2,4,0,0-12.4,.6-28.8,8.2,0,0-29.8,10.4-39,20.8,0,0-6.4,8.8-11.8,10,0,0-5.8,.8-11.8,8.2,0,0,9.8-5.8,18.8-5.8,0,0,4-2.4,.2,1.2,0,0-3.6,7.6-2,13,0,0-.6,5.2-1.4,6.8,0,0-7.8,12.8-7.8,15.2s1.2,12.2,1.6,12.8c.4,.6-1-1.6,2.8,.8s6.6,4,7.4,6.8c.8,2.8-2-5.4-2.2-7.2-.2-1.8-4.4-9-3.6-11.4,0,0,1,1,1.8,2.4,0,0-.6-.6,0-4.2,0,0,.8-5.2,2.2-8.4,1.4-3.2,3.4-7,3.8-7.8,.4-.8,.4-6.6,1.8-4l3.4,2.6s-2.8-2.6-.6-4.8c0,0-1-5.6,.8-8.2,0,0,7-8.4,8.6-9.4,1.6-1,.2-.6,.2-.6,0,0,6-4.2,.2-2.6,0,0-4,1.6-7,1.6,0,0-7.6,2-3.6-2.2s14-9.6,17.8-9.4l.8,1.6,11.2-2.4-1.2,.8s-.2-.2,4-.6,10,1,11.4-.8c1.4-1.8,4.8-2.8,4.4-1.4-.4,1.4-.6,3.4-.6,3.4,0,0,5-5.8,4.4-3.6-.6,2.2-8.8,7.4-10.2,13.6l10.4-8.2,3.6-3s3.6,2.2,3.8,.6c.2-1.6,4.8-7.4,6-7.2,1.2,.2,3.2-2.6,3,0s7.4,8,7.4,8c0,0,3.2-1.8,4.6-.4s5.6-19.8,5.6-19.8l25-10.6,43.6-3.4-17-6.8-61-11.4Z"/>
    <path class="cls-16" d="M235.4,229.43s-15-16.8-23.4-19.4c0,0-13.4-6.8-38,1"/>
    <path class="cls-16" d="M208.8,208.63s-25.2-8-40.6-3.8c0,0-18.4,2-26.8,15.8"/>
    <path class="cls-16" d="M205.2,207.43s-17-7.2-31.8-9.4c0,0-16.6-2.6-33.2,4.6,0,0-12.2,6-17.6,16.2"/>
    <path class="cls-16" d="M206.2,207.83s-15.4-11-16.4-12.4c0,0-7-11-20-11.4,0,0-21.4,.8-38.6,8.8"/>
    <path d="M204.89,198.84c1.54,1.46,28.51,30.39,28.51,30.39,35.2,36.6,7.2,2.4,7.2,2.4-7.6-4.8-16.8-23.6-16.8-23.6-1.2-2.8,14,7.2,14,7.2,4,.8,17.6,20,17.6,20-6.8-2.4-2,4.8-2,4.8,2.8,2,23.2,17.6,23.2,17.6,3.6,4,7.6,5.6,7.6,5.6,14-5.2,7.6,8,7.6,8,2.4,6.8,8-4.8,8-4.8,11.2-16.8-5.2-14.4-5.2-14.4-30,2.8-36.8-13.2-36.8-13.2-2.4-2.4,6.4,0,6.4,0,8.4,2-7.2-12.4-7.2-12.4,2.4,0,11.6,6.8,11.6,6.8,10.4,9.2,12.4,7.2,12.4,7.2,18-8.8,28.4-1.2,28.4-1.2,2,1.6-3.6,8.4-2,13.6,1.6,5.2,6.4,17.6,6.4,17.6-2.4,1.6-2,12.4-2,12.4,16.8,23.2,7.2,21.2,7.2,21.2-15.6-.4-.8,7.2-.8,7.2,3.2,2,12,9.2,12,9.2-2.8-1.2-4.4,4-4.4,4,4.8,4,2,8.8,2,8.8-6,1.2-7.2,5.2-7.2,5.2,6.8,8-3.2,8.4-3.2,8.4,3.6,4.4-1.2,16.4-1.2,16.4-4.8,0-11.2,5.6-11.2,5.6,2.4,4.8-8,10.4-8,10.4-8.4,1.6-5.6,8.4-5.6,8.4-8,6-10.4,22-10.4,22-.8,10.4-3.2,13.6,2,11.6s4.4-14.4,4.4-14.4c-4.8-15.6,38-31.6,38-31.6,4-1.6,4.8-6.8,4.8-6.8,2,.4,10.8,8,10.8,8,7.6,11.2,8,2,8,2,1.2-3.6-.4-9.6-.4-9.6,6-21.6-8-28-8-28-10-33.6,4-25.2,4-25.2,2.8,5.6,13.6,10.8,13.6,10.8l3.6-2.4c-1.6-4.8,6.8-10.8,6.8-10.8,2.8,6.4,8.8-1.6,8.8-1.6,3.6-24.4,16-10,16-10,4,1.2,5.2-5.6,5.2-5.6,3.6-10.4,0-24,0-24,3.6-.4,13.2,5.6,13.2,5.6,2.8-3.6-6.4-20.4-2.4-18,4,2.4,8.4,4,8.4,4,.8-2-9.2-14.4-9.2-14.4-4.4-2.8-9.6-23.2-9.6-23.2,7.2,3.6-2.8-11.6-2.8-11.6,0-3.2,6-14.4,6-14.4-.8-6.8,0-6.4,0-6.4,2.8,1.2,10.8,2.8,4-3.6-6.8-6.4,.8-11.2,.8-11.2,4.4-2.8-9.2-2.4-9.2-2.4-5.2-4.4-4.8-8.4-4.8-8.4,8,2-6.4-12.4-8.8-16-2.4-3.6,7.2-8.8,7.2-8.8,13.2-3.6,1.6-6.8,1.6-6.8-19.6,.4-8.8-10.4-8.8-10.4,6,.4,4.4-2,4.4-2-5.2-1.2-14.8-7.6-14.8-7.6-4-3.6-.4-2.8-.4-2.8,16.8,1.2-12-10-12-10,8,0-10-10.4-10-10.4-2-1.6-5.2-9.2-5.2-9.2-6-5.2-10.8-12-10.8-12-.4-4.4-5.2-9.2-5.2-9.2-11.6-13.6-17.2-13.2-17.2-13.2-14.8-3.6-20-2.8-20-2.8l-52.8,4.4c-26.4,12.8-18.6,33.8-18.6,33.8,6.4,8.4,15.6,4.6,15.6,4.6,4.6-6.2,16.2-4,16.2-4,20.4,3.2,17.8-.4,17.8-.4-2.4-4.6-18.6-10.8-18.8-11.4-.2-.6-9-4-9-4-3-1.2-7.4-10.4-7.4-10.4-3.2-3.4,12.6,2.4,12.6,2.4-1.2,1,6.2,5,6.2,5,17.4-1,28,9.8,28,9.8,10.8,16.6,11,8.4,11,8.4,2.8-9.4-9-30.6-9-30.6,.4-2,8.6,4.6,8.6,4.6,1.4-2,2.2,3.8,2.2,3.8,.2,2.4,4,10.4,4,10.4,2.8,13,6.4,5.6,6.4,5.6l4.6,9.4c1.4,2.6-4.6,10.2-4.6,10.2-.2,2.8,.6,2.6-5,10.2-5.6,7.6-2.2,12-2.2,12-1.4,6.6,7.4,6.2,7.4,6.2,2.6,2.2,6,2.2,6,2.2,1.8,2,4.2,1.4,4.2,1.4,1.6-3.8,7.8-1.8,7.8-1.8,1.4-2.4,9.6-2.8,9.6-2.8,1-2.6,1.4-4.2,4.8-4.8,3.4-.6-21.2-43.6-21.2-43.6,6.4-.8-1.8-13.2-1.8-13.2-2.2-6.6,9.2,8,11.4,9.4,2.2,1.4,3.2,3.6,1.6,3.4-1.6-.2-3.4,2-2,2.2,1.4,.2,14.4,15.2,17.8,25.4,3.4,10.2,9.4,14.2,15.6,20.2,6.2,6,5.4,30.2,5.4,30.2-.4,8.8,5.6,19.4,5.6,19.4,2,3.8-2.2,22-2.2,22-2,2.2-.6,3-.6,3,1,1.2,7.8,14.4,7.8,14.4-1.8-.2,1.8,3.4,1.8,3.4,5.2,6-1.2,3-1.2,3-6-1.6,1,8.2,1,8.2,1.2,1.8-7.8-2.8-7.8-2.8-9.2-.6,2.4,6.6,2.4,6.6,8.6,7.2-2.8,2.8-2.8,2.8-4.6-1.8-1.4,5-1.4,5,3.2,1.6,20.4,8.6,20.4,8.6,.4,3.8-2.6,8.8-2.6,8.8,.4,4-1.8,7.4-1.8,7.4-1.2,8.2-1.8,9-1.8,9-4.2,.2-11.6,14-11.6,14-1.8,2.6-12,14.6-12,14.6-2,7-20-.2-20-.2-6.6,3.4-4.6,0-4.6,0-.4-2.2,4.4-8.2,4.4-8.2,7-2.6,4.4-13.4,4.4-13.4,4-1.4-7.2-4.2-7-5.4,.2-1.2,6-2.6,6-2.6,8-2,3.6-4.4,3.6-4.4-.6-4,2.4-9.6,2.4-9.6,11.6-.8,0-17,0-17-10.8-7.6-11.8-13.4-11.8-13.4,12.6-8.2,4.4-20.6,4.6-24.2,.2-3.6,1.4-25.2,1.4-25.2-2-6.2-5-19.8-5-19.8,2.2-5.2,9.6-17.8,9.6-17.8,2.8-4.2,11.6-9,9.4-12-2.2-3-10-1.2-10-1.2-7.8-1.4-7.2,3.8-7.2,3.8-1.6,1-2.4,6-2.4,6-.72,7.93-9.6,14.2-9.6,14.2-11.2,6.2-2,10.2-2,10.2,6,6.6-3.8,6.8-3.8,6.8-11-1.8-2.8,8.4-2.8,8.4,10.8,12.8,7.8,15.6,7.8,15.6-10.2,1,2.4,10.2,2.4,10.2,0,0-.8-2-.6-.2,.2,1.8,3.2,6,4,8,.8,2-3.2,2.2-3.2,2.2,.6,9.6-14.8,5.4-14.8,5.4l-1.6,.2c-1.6,.2-12.8-.6-18.6-2.8-5.8-2.2-12.6-2.2-12.6-2.2,0,0-4,1.8-11.6,1.6-7.6-.2-15.6,2.6-15.6,2.6-4.4-.4,4.2-4.8,4.4-4.6,.2,.2,5.8-5.4-2.2-4.8-21.8,1.64-32.6-8.6-32.6-8.6-2-1.4-4.6-4.2-4.6-4.2-10-2,1.4,12.4,1.4,12.4,1.2,1.4-.2,2.4-.2,2.4-.8-1.6-8.6-7-8.6-7-2.81-.97-4.17-2.31-6.5-4.79Z"/>
    <path class="cls-18" d="M181,187.23s11.6,5.6,14.2,8.4c2.6,2.8,16.6,14.2,16.6,14.2,0,0-5.4-2-8-3.8-2.6-1.8-13.4-10-13.4-10,0,0-3.8-6-9.4-8.8Z"/>
    <path class="cls-13" d="M122.99,156.03c.34-.15-.19-2.86-.39-3.4-1.02-2.73-10-4.2-10-4.2-.23,1.36-.28,2.96-.18,4.6,0,0,4.87,5.52,10.57,3Z"/>
    <path class="cls-22" d="M122.99,155.83c-.45,.16-.01-2.73-.19-3.2-1.02-2.73-10.2-4.3-10.2-4.3-.23,1.36-.28,2.96-.18,4.6,0,0,4.27,5.12,10.57,2.9Z"/>
    <path d="M118.6,155.97c-.62,0-1.13-1.14-1.13-2.55s.51-2.55,1.13-2.55,1.13,1.14,1.13,2.55-.51,2.55-1.13,2.55Z"/>
    <path d="M73,254.03s-5.6,10,19.2,4c0,0,14-1.2,16.4-3.6,1.2,.8,9.57,3.73,12.4,4.4,6.8,1.6,15.2-8.4,15.2-8.4,0,0,4.6-10.5,7.4-10.5s-.4,1.6-.4,1.6c0,0-6.6,10.1-6.2,11.7,0,0-5.2,20-21.2,20.8,0,0-16.15,.95-14.8,6.8,0,0,8.8-2.4,11.2,0,0,0,10.8-.4,2.8,6l-6.8,11.6s.14,3.92-10,.4c-9.8-3.4-20.1-16.3-20.1-16.3,0,0-15.95-14.55-5.1-28.5Z"/>
    <path class="cls-42" d="M71.8,258.03s-2,9.6,34.8-.8c0,0,4.4,0,6.8,.8,2.4,.8,14.4,3.6,16.4,2.4,0,0-7.2,13.6-18.8,12,0,0-13.2,1.6-12.8,6.4,0,0,4,7.2,8.8,9.6,0,0,2.8,2.4,2.4,5.6s-3.2,4.8-5.2,5.6-5.2-2.4-6.8-2.4-10-6.4-14.4-11.2-12.8-16.8-12.4-19.6l1.2-8.4Z"/>
    <path class="cls-25" d="M75,275.48c2.6,3.95,5.8,8.15,8,10.55,4.4,4.8,12.8,11.2,14.4,11.2s4.8,3.2,6.8,2.4,4.8-2.4,5.2-5.6-2.4-5.6-2.4-5.6c-3.07-1.53-5.81-5.03-7.39-7.35,0,0,.19,2.55-5.01,1.75-5.2-.8-10.4-3.6-12-6.8s-4-5.6-2.4-2c1.6,3.6,4,7.2,5.6,7.6,1.6,.4,1.2,1.6-1.2,1.2s-5.2-.8-9.6-6v-1.35Z"/>
    <path class="cls-14" d="M72.4,254.43s1.8-13.6,3-17.6c0,0-.8-6.8,1.6-11,2.4-4.2,4.4-10.4,7.4-15.8,3-5.4,3.2-9.4,7.2-11,4-1.6,10-10.2,12.8-11.2,2.8-1,2.6-.2,2.6-.2,0,0,6.8-14.8,20.4-10.8,0,0-16.2-2.8-.4-12.2,0,0-4.8,1.1-1.5-5.9,2.2-4.67,1.7,2.1-9.3,13.9,0,0-5,8.6-10.2,11.6s-17.2,10-18.4,13.8c-1.2,3.8-4.4,9.6-6.4,11.2-2,1.6-4.8,5.8-5.2,9.2,0,0-1.2,4-2.6,5.2-1.4,1.2-1.6,4.4-1.6,6.4s-2,4.8-1.8,7.2c0,0,.8,19,.4,21l2-3.8Z"/>
    <path class="cls-9" d="M63.8,259.03s-2-1.4-6.4,4.6c0,0,7.3,33,7.3,34.4,0,0,1.1-2.1-.2-9.3-1.3-7.2-2.2-19.9-2.2-19.9l1.5-9.8Z"/>
    <path class="cls-14" d="M85.4,198.43s-17.6,3.2-17.2,32.4l-.8,24.8s-1.2-25.6-2.4-27.2,2.8-12.8-.4-6.8c0,0-14,14-6,35.2,0,0,1.5,3.3-1.5-1.3,0,0-4.6-12.6-3.5-19,0,0,.2-2.2,2.1-5,0,0,8.6-11.7,11.3-14,0,0,1.8-14.4,17.2-19.6,0,0,5.7-2.3,1.2,.5Z"/>
    <path d="M224.8,132.23c.66-.35,.65-1.32,1.23-1.5,1.15-.34,1.31-1.41,1.83-2.2,.87-1.32,1.07-2.85,1.65-4.34,.27-.7,.3-1.65-.01-2.31-1.17-2.48-1.88-4.93-3.32-7.36-.27-.45-.53-1.24-.73-1.84-.46-1.38-1.72-2.38-2.58-3.7-.29-.44,.24-1.37-.48-1.45-.9-.1-2.35-.68-2.58,.34-.59,2.59,.42,5.11,1.39,7.55-.78,.69-.45,1.61-.3,2.38,.71,3.61-.49,6.96-1.25,10.43-.02,.1,.32,.3,.29,.36-1.22,2.69-2.67,5.13-4.49,7.51-.76,.99-1.63,1.91-2.13,2.97-.37,.79-.78,1.75-.53,2.74-3.43,2.78-5.68,6.62-8.3,10.47-.46,.68-.17,1.89,.38,2.16,.81,.4,1.77-.63,2.24-1.47,.39-.7,.74-1.35,1.23-1.99,.13-.18-.05-.59,.09-.72,2.63-2.35,4.3-5.28,6.76-7.65,1.95-.33,3.49-1.33,5.24-2.34,.31-.18,.83,.07,1.12-.12,1.75-1.18,1.75-3.21,1.86-5.12,.05-.88,.25-2.2,1.39-2.81Z"/>
    <path d="M215.96,127.76c.12-.08-.03-.5,.08-.72,.16-.32,.57-.51,.73-.84,.11-.22-.05-.6,.08-.74,2.33-2.45,2.59-5.47,1.55-8.44,1.02-.62,1.08-1.88,.66-2.73-.85-1.7-1.05-3.63-2.02-5.17-.8-1.27-2.38-2.51-3.75-1.21-.42,.4-.74,1.19-.46,1.9,.06,.16,.35,.31,.32,.39-.11,.32-.65,.55-.66,.82-.03,1.5-.98,3.01-.35,4.34,.77,1.63,1.59,3.49,2.27,5.26-1.23,2.12-.2,4.56-1.95,6.44-.14,.15-.13,.53,0,.73,.29,.49,.7,.89,1.18,1.18,.2,.12,.55,.12,.75,0,.58-.36,.98-.85,1.58-1.23Z"/>
    <path d="M278.77,117.45c1.39,1.79,1.68,4.59-.37,5.98,.55,3.31,3.9,1.33,6,.8-.11-.39,.12-.73,.4-.74,1.06-.01,1.74-1.05,2.8-.86,.43-1.56,2.07-2.26,2.72-3.64,1.73-3.7,1.14-7.97-1.45-11.21-.2-.25,.02-.77-.11-1.13-.76-2.21-2.82-2.53-4.76-3.21-1.18-3.88-1.84-7.91-3.6-11.6-1.61-.25-2.31-1.99-3.65-2.71-1.33-.72-1.9,.86-1.86,1.91,0,.2,.46,.43,.29,.79-.08,.16-.34,.28-.34,.41,0,.14,.22,.27,.36,.4-.92,.82-2.34,1.3-2.64,2.44-.95,3.71,1.62,6.84,3.29,10.04,.59,1.13-.14,2.41-.9,3.61-.44,.69-.33,1.82-.05,2.68,.75,2.33,2.34,4.07,3.88,6.05Z"/>
    <path d="M241.61,135.84c-1.49,1.85-4.9,4.42-1.98,6.35,.19,.13,.56,.13,.74,0,2.02-1.57,4.02-2.47,6.46-3.05,.12-.03,.4,.44,.77,.28,1.61-.7,3.62-.64,4.81-1.98,3.77,.22,7.33-.89,10.72-2.2,1.16-.45,2.43-1.01,3.63-1.51,1.38-.58,2.58-1.5,3.69-2.65,.13-.14,.49-.05,.75-.05-.04-.86,.92-.99,1.17-1.61,.09-.23-.06-.63,.07-.73,2.14-1.63,3.06-3.65,1.89-6.03-.28-.58-.53-1.2-1.1-1.67-1.08-.91-2.19-.06-3.23-.36-.16,.63-.89,.46-1.27,.65-.86,.44-2.19-.15-3.05,.29-1.36,.69-2.6,.86-4.03,1.24-.31,.08-1.09-.01-1.25,.61-.13-.13-.28-.37-.39-.35-1.91,.4-3.17,.61-4.47,2.3-.1,.13-.54-.05-.7,.09-.96,.81-1.36,2.04-2.46,2.71-.2,.12-.55-.05-.75,.08-.65,.43-1.01,1.07-1.65,1.52-.33,.23-.73-.1-.7-.35,.25-1.95,.9-3.73,.32-5.61,2.08-2.52,4.59-4.47,6.4-7.2,.01-2.17,.71-4.31,.59-6.39-.01-.19-.3-.93-.42-1.27-.31-.85,.59-1.92-.25-2.64-1.4-1.2-2.7-.33-3.52,1.11-1.84,.39-3.9,1.08-5.48-.15-1.01-.79-1.58-1.69-2.38-2.75-.99-1.3-.65-2.74-.58-4.3,0-.13-.31-.26-.31-.4,0-.14,.22-.27,.35-.4-.71-.63-.98-1.68-2-2,.31-1.09-.37-1.98-1.24-2.28-1.99-.69-3.67,1.22-5.56,1.29-.51,.02-.98-1.02-1.63-1.34-.43-.22-1.14-.25-1.5,.02-.69,.5-1.28,.62-2.04,.82-1.62,.44-2.89,1.53-4.38,2.38-1.48,.86-2.44,2.29-3.52,3.61-.94,1.15-1.08,3.57,.34,4.07,1.84,.65,3.15-2.05,5.11-1.73,.31,.05,.52,.36,.41,.75,.39,.11,.61-.12,.8-.4,.86,1.02,2.02,1.36,2.96,2.23,.97,.9,2.72,.49,3.73,1.48,1.53,1.5,.97,4.18,2.91,5.49-.59,1.31-1.19,2.59-1.53,4.02-.28,1.21,.71,2.4,1.92,2.31,1.26-.09,1.52-.85,2.01-1.93,.27,.27,.74,.56,.69,.78-.46,2.39-1.48,4.38-1.94,6.81-.06,.32-.36,.52-.75,.41-.47,4.15-4.52,6.54-7.06,9.71-.4,.5-.41,1.75,0,2.15,1.4,1.39,3.36-.16,5.06-.66,.21-1.21,1.07-2.15,2.4-2.09,.26,.01,.49-.53,.82-.66,.35-.14,.85,.09,1.14-.11,1.73-1.19,3.14-2.3,4.88-3.49,.19-.13,.54,.03,.75-.08,.32-.16,.51-.55,.83-.73,.35-.2,.59,.09,.78,.37-.65,.35-.65,1.31-1.23,1.51-.77,.27-1.34,.78-2.01,1.23-.29,.19-.95-.06-1.06,.12-.6,1.03-1.78,1.47-2.49,2.35Z"/>
    <path d="M186.2,86.43s-9.24-2.87-20.4,22.8c0,0-2.4,5.2-4.8,7.2s-13.6,5.6-15.6,9.6l-10.4,16s14.8-16,18-18.4c0,0,8-8.4,4.8-1.6,0,0-14,10.8-12.8,20,0,0-5.6,14.4-6.4,16.4,0,0,16-32,18.4-33.2,2.4-1.2,3.6-1.2,2.4,2.4-1.2,3.6-1.6,20-4.4,22,0,0,8-20.4,7.2-23.6,0,0,3.2-3.6,5.6,1.6l-1.2,16,4.4,12s-2.4-11.2-.8-26.8c0,0-2-10.4,2-4.8,4,5.6,13.6,11.6,13.6,16.4,0,0-5.2-17.6-14.4-22.4l-4,6-1.2-2s-3.6-.8,.8-7.6,4-7.6,4-7.6c0,0,6.4,7.2,8,7.2,0,0,13.2-7.6,14.4,16.8,0,0,6.8-14.4-2.4-21.2,0,0-14.8-2-13.6-7.2l7.2-12.4c3.6-5.2,2-2.4,2-2.4l-.4-1.2Z"/>
    <path d="M166.2,102.83s-12.8,0-16,5.2l-7.2,9.6s17.2-10,21.2-11.2c4-1.2,2-3.6,2-3.6Z"/>
    <path d="M126.2,109.23s-2,1.2-2.4,4c-.4,2.8-2.8,3.2-2,6,.8,2.8,2.8,5.2,2.8,1.2s1.6-6,2.4-7.2,2.4-5.6-.8-4Z"/>
    <path d="M117.4,170.43s-8.4-4-11.6-7.6c-3.2-3.6-2.75,1.57-7.6,1.2-5.85-.44-4.8-16.4-4.8-16.4l-4,7.6s-1.2,14.4,6.8,12c3.91-1.17,5.2,.4,3.6,1.2-1.6,.8,5.6,1.2,2.8,2.8-2.8,1.6,11.6-3.6,9.2,6.8l5.6-7.6Z"/>
    <path d="M104.8,184.83s-15.4,4.4-19-5.2c0,0-4.8,2.4-2.6,5.4,2.2,3,3.4,3.4,3.4,3.4,0,0,5.4,1.2,4.8,2s-3,4.2-3,4.2c0,0,10.2-6,16.4-9.8Z"/>
    <path class="cls-9" d="M333.2,263.03c-.43,2.13-2.1,2.94-4,3.6-1.92-.96-4.51-4.06-6.4-2-.47-.48-1.25-.54-1.6-1.2-.46-.9-.19-1.94-.53-2.74-.55-1.27-1.25-2.64-1.07-4.06,1.81-.71,2.4-2.62,1.93-4.38-.07-.26-.5-.45-.3-.8,.19-.32,.5-.55,.77-.82-.14,.14-.28,.37-.39,.35-.61-.11-.49-.74-.36-1.13,.59-1.75,2.6-2.01,3.95-.82,.26-.56,.76-.37,1.2-.4-.05-.58,.36-1.11,.56-1.53,.52-1.1,2.15,0,2.94-.6,1.08-.82,2.14-1.52,3.22-.92,1.81,1.01,3.52,2.22,4.72,3.97,.57,.83,.81,2.12,.76,3.07-.04,.65-1.42,.29-1.76,1.22-.65,1.75,1.19,2.27,1.94,3.6,.2,.35-.07,.65-.38,.75-.41,.13-1.2-.06-1.06,.39,.97,3.19-1.78,3.87-4.13,4.44Z"/>
    <path class="cls-9" d="M323.6,282.63c0-1.74-1.61-3.49-.4-5.2,.13,.13,.27,.35,.4,.35s.27-.22,.4-.35c1.49,2.22,5.15,3.14,5,5.99-.02,.45-1.11,1.37-.21,2.01-1.81,1.35-1.87,3.72-2.8,5.6-1.24-.29-2.45-.65-3.6-1.2,.35-1.49,.24-3.17,1.05-4.49,.43-.7,.15-1.78,.14-2.71Z"/>
    <path class="cls-37" d="M157.4,273.63s-16.86,10.14-2.8-5.2c8.8-9.6,18.8-15.2,18.8-15.2,0,0,10.4-4.4,14-5.6,3.6-1.2,18.8-6.4,22-6.8,3.2-.4,12.8-4.4,19.6-.4s14.8,8.4,14.8,8.4c0,0-16.4-8.4-20-6-3.6,2.4-10.8,2-16.8,5.2,0,0-14.8,4.4-18,6.4-3.2,2-13.6,13.6-15.2,12.8-1.6-.8,.4-1.2,1.6-4,1.2-2.8-.8-4.4-8.8,2-8,6.4-9.2,8.4-9.2,8.4Z"/>
    <path d="M164.8,267.66s1.41-13.04,9.89-11.38c0,0,8.23-4.17,10.95-6.14,0,0,8.14-1.7,9.45-2.32,18.48-8.7,33.2-4.18,33.74-5.3,.55-1.12,20.17,6,23.78,10.08,.39,.44-10.23-5.6-19.93-7.49-8.27-1.61-29.88,.25-40.78,5.78-2.97,1.51-11.92,7.29-14.45,7.18-2.53-.11-12.65,9.57-12.65,9.57Z"/>
    <path class="cls-37" d="M161,293.23s-15.2-2.4,1.6-4c0,0,18-2,22-7.2,0,0,13.6-9.2,16.4-9.6,2.8-.4,32.8-7.6,33.2-10,.4-2.4,6-2.4,7.6-1.6,1.6,.8,.8,2-2,2.8-2.8,.8-34,17.2-40.4,18.4s-18,8.8-22.8,10c-4.8,1.2-15.6,1.2-15.6,1.2Z"/>
    <path d="M180.52,285.83s-8.58-.83,.02-1.65c0,0,8.82-3.42,10.86-6.09,0,0,6.96-4.71,8.4-4.91,1.43-.21,15.39-3.89,15.6-5.12,.2-1.23,34.27-13.81,38.69-10.62,2.91,2.1-6.99,.42-16.62,4.83-1.35,.62-35.21,15.21-38.48,15.82-3.28,.62-9.22,4.51-11.67,5.12-2.46,.62-6.79,2.62-6.79,2.62Z"/>
    <path d="M172.6,288.03s5.2-.4,4,1.2c-1.2,1.6-3.6,.8-3.6,.8l-.4-2Z"/>
    <path d="M165.4,289.63s5.2-.4,4,1.2c-1.2,1.6-3.6,.8-3.6,.8l-.4-2Z"/>
    <path d="M155,291.23s5.2-.4,4,1.2c-1.2,1.6-3.6,.8-3.6,.8l-.4-2Z"/>
    <path d="M147.4,292.03s5.2-.4,4,1.2c-1.2,1.6-3.6,.8-3.6,.8l-.4-2Z"/>
    <path d="M185.8,252.43s4.4,0,3.2,1.6c-1.2,1.6-4.4,1.2-4.4,1.2l1.2-2.8Z"/>
    <path d="M175.8,258.03s6.51-2.14,4,1.2c-1.2,1.6-3.6,.8-3.6,.8l-.4-2Z"/>
    <path d="M164.6,262.83s5.2-.4,4,1.2c-1.2,1.6-3.6,.8-3.6,.8l-.4-2Z"/>
    <path d="M157,268.83s5.2-.4,4,1.2-3.6,.8-3.6,.8l-.4-2Z"/>
    <path d="M150.2,273.63s5.2-.4,4,1.2c-1.2,1.6-3.6,.8-3.6,.8l-.4-2Z"/>
    <path d="M189.28,280.03s6.92-.53,5.32,1.6c-1.6,2.13-4.79,1.06-4.79,1.06l-.53-2.66Z"/>
    <path d="M199.68,275.23s6.92-.53,5.32,1.6c-1.6,2.13-4.79,1.07-4.79,1.07l-.53-2.66Z"/>
    <path d="M210.48,270.83s6.92-.53,5.32,1.6c-1.6,2.13-4.79,1.06-4.79,1.06l-.53-2.66Z"/>
    <path d="M220.88,266.03s6.92-.53,5.32,1.6c-1.6,2.13-4.79,1.07-4.79,1.07l-.53-2.66Z"/>
    <path d="M193.28,248.03s6.92-.53,5.32,1.6c-1.6,2.13-5.59,1.86-5.59,1.86l.27-3.46Z"/>
    <path d="M203.28,244.83s6.92-.53,5.32,1.6c-1.6,2.13-5.99,1.86-5.99,1.86l.67-3.46Z"/>
    <path d="M180.6,284.83s5.2-.4,4,1.2c-1.2,1.6-3.6,.8-3.6,.8l-.4-2Z"/>
    <path class="cls-14" d="M107.4,185.63s-4.4,8.8-4.8,12c0,0,.8-8.8,2-10.8,1.2-2,2.8-1.2,2.8-1.2Z"/>
    <path class="cls-14" d="M89,199.63s-3.2,14.4-2.8,17.2c0,0-1.2-11.6-.8-12.8,.4-1.2,3.6-4.4,3.6-4.4Z"/>
    <path class="cls-37" d="M109.8,125.03l-.2,3.2-2.2,.2s14.2,12.6,14.8,20.2c0,0,.8-8.2-12.4-23.6Z"/>
    <path d="M113.78,126.29c-.43-.42-.21-1.16-.62-1.42-.81-.52,1.3-.57,1.07-1.29-.38-1.21-.2-1.23-.32-2.5-.06-.6,.53-2.14,.92-2.58,1.45-1.65,.12-4.58,1.76-6.14,.3-.29,.68-.84,.96-1.26,.66-.96,1.84-1.45,2.79-2.28,.32-.28,.12-1.1,.69-1.01,.71,.12,1.96-.01,1.91,.83-.11,2.12-1.44,3.84-2.72,5.51,.45,.7,0,1.34-.29,1.9-1.33,2.62-1.15,5.46-1.32,8.3,0,.09-.31,.16-.3,.22,.35,2.34,.94,4.53,1.82,6.76,.37,.93,.84,1.83,.99,2.75,.11,.69,.21,1.52-.19,2.22,2.04,2.89,.73,5.54,1.9,9.07,.21,.62,1.9,2.54,1.44,2.38-2.51-.87-2.62-1.27-2.8-2.02-.15-.62-.48-2-.71-2.6-.06-.16-.24-2.05-.31-2.17-1.51-2.38-.15-2.21-1.52-4.56-1.43-.68-2.39-1.78-3.52-2.95-.2-.2,.94-.93,.76-1.14-1.09-1.29-2.24-2.06-1.91-3.55,.15-.69,.29-1.75-.45-2.47Z"/>
    <path d="M110.2,128.03s.4,6.8,2.8,8.4c2.4,1.6,1.2,.8-2-.4-3.2-1.2-2-2-2-2,0,0-2.8,.4-.4,2.4s6,4.4,4.4,4.4-9.2-4-9.2-6.8-1-6.9-1-6.9c0,0,1.1-.8,5.9-.7,0,0,1.4,.7,1.5,1.6Z"/>
    <path class="cls-4" d="M109.4,146.63s-8.52-2.79-27,.6c0,0,9.03-2.08,27.8,.2,10.3,1.25-.8-.8-.8-.8Z"/>
    <path class="cls-4" d="M111.5,146.56s-8.25-3.52-26.95-1.74c0,0,9.18-1.29,27.68,2.6,10.15,2.14-.73-.87-.73-.87Z"/>
    <path class="cls-4" d="M113.28,146.65s-7.96-4.12-26.75-3.74c0,0,9.25-.6,27.41,4.65,9.97,2.88-.66-.92-.66-.92Z"/>
    <path class="cls-4" d="M114.55,146.87s-6.82-4.31-23.7-5.4c0,0,8.34,.17,24.22,6.28,8.72,3.35-.52-.87-.52-.87Z"/>
    <path class="cls-4" d="M229.84,157.39s-.93,.64-.72-.54c.22-1.18,28.42-14.35,32.04-14.1,0,0-30.25,13.21-31.32,14.64Z"/>
    <path class="cls-4" d="M226.44,158.03s-.88,.71-.75-.48c.12-1.19,27.21-16.54,30.83-16.57,0,0-29.12,15.54-30.08,17.05Z"/>
    <path class="cls-4" d="M223.16,159.4s-.83,.77-.79-.43c.04-1.2,19.86-16.7,29.67-18.57,0,0-18.03,8.13-28.88,19Z"/>
    <path class="cls-4" d="M220.28,161.27s-.74,.69-.71-.39c.04-1.08,17.87-15.03,26.7-16.71,0,0-16.23,7.31-26,17.1Z"/>
    <path class="cls-37" d="M188.6,309.23s-15.2-2.4,1.6-4c0,0,18-2,22-7.2,0,0,13.6-9.2,16.4-9.6,2.8-.4,19.2-4,19.6-6.4,.4-2.4,6.4-4.8,8-4,1.6,.8,1.6,10-1.2,10.8s-21.6,8-28,9.2-18,8.8-22.8,10c-4.8,1.2-15.6,1.2-15.6,1.2Z"/>
    <path d="M261.6,271.83s-3,1.6-4.2,4.2c0,0-6.4,10.6-20.6,13.8,0,0-23,9-30.8,11,0,0-13.4,5-20.8,4.2,0,0-7,.2-.8,1.8,0,0,20.2-2,23.6-3.8,0,0,15.6-5.2,18.6-7.8,3-2.6,21.2-7.6,23.4-9.6,2.2-2,12-10.4,11.6-13.8Z"/>
    <path d="M202.88,303.34s5.23-.23,4.08,1.32c-1.15,1.55-3.6,.68-3.6,.68l-.48-2Z"/>
    <path d="M195.68,304.69s5.23-.23,4.08,1.32c-1.15,1.55-3.6,.68-3.6,.68l-.47-2Z"/>
    <path d="M185.25,305.94s5.23-.23,4.08,1.32c-1.15,1.55-3.6,.68-3.6,.68l-.47-2Z"/>
    <path d="M177.61,306.48s5.23-.23,4.08,1.32c-1.15,1.55-3.6,.68-3.6,.68l-.47-2Z"/>
    <path d="M219.41,295.94s6.96-.3,5.42,1.76c-1.53,2.06-4.79,.9-4.79,.9l-.63-2.66Z"/>
    <path d="M229.73,291.52s5.96-3.3,5.42,1.76c-.27,2.56-4.79,.9-4.79,.9l-.63-2.66Z"/>
    <path d="M238.86,288.7s7.16-3.7,5.42,1.76c-.78,2.45-4.79,.9-4.79,.9l-.63-2.66Z"/>
    <path d="M248.37,283.88s4.36-4.9,5.43,1.76c.41,2.54-4.79,.9-4.79,.9l-.63-2.66Z"/>
    <path d="M210.83,300.43s5.23-.23,4.08,1.32c-1.15,1.55-3.6,.68-3.6,.68l-.47-2Z"/>
    <path class="cls-4" d="M246.43,179.03s-.73,.67-.73-.41c0-1.07,17.48-14.33,26.33-15.72,0,0-16.1,6.73-25.6,16.12Z"/>
    <path d="M249.4,242.83s22,22.4,31.2,26c0,0,9.2,11.2,5.2,37.2,0,0-3.2,7.6-6.4-13.2,0,0,3.2-25.2-8-9.2,0,0-8.4-9.9-2-9.6,0,0,3.2,2,3.6,.4,.4-1.6-7.6-15.2-24.8-29.6-17.2-14.4,1.2-2,1.2-2Z"/>
    <path class="cls-4" d="M191,281.63s-.2-1.8,1.6-1c1.8,.8,96,7,127.6,31,0,0-45.2-23.2-129.2-30Z"/>
    <path class="cls-4" d="M201.4,277.23s-.2-1.8,1.6-1c1.8,.8,138.4-.2,162,32.2,0,0-22-25.2-163.6-31.2Z"/>
    <path class="cls-4" d="M213,273.23s-.2-1.8,1.6-1c1.8,.8,175.2-12.2,198.8,20.2,0,0-9.6-25.6-200.4-19.2Z"/>
    <path class="cls-4" d="M223,268.43s-.2-1.8,1.6-1c1.8,.8,124-37.8,147.6-5.4,0,0-13.4-24.6-149.2,6.4Z"/>
    <path class="cls-4" d="M165,291.23s-.2-1.8,1.6-1c1.8,.8,19.6,3,21.6,41.8,0,0-7.2-42-23.2-40.8Z"/>
    <path class="cls-4" d="M156.2,292.83s-.2-1.8,1.6-1c1.8,.8,16-3.8,13.2,35,0,0,1.2-35.2-14.8-34Z"/>
    <path class="cls-4" d="M148.2,293.23s-.2-1.8,1.6-1c1.8,.8,17.2,1.4,4.8,23.8,0,0,9.6-24-6.4-22.8Z"/>
    <path class="cls-4" d="M195.52,248.89s-.44,2,1.1,.78c16.07-12.62,48.51-71.53,104.19-77.16,0,0-38.31-12.11-105.3,76.38Z"/>
    <path class="cls-4" d="M206.72,247.09s-1.36-1.19,.51-1.82,114.31-73.13,153.6-65.16c0,0-27.11-7.51-154.1,66.98Z"/>
    <path class="cls-4" d="M185.88,253.2s-.51,1.6,1.2,.62c8.98-5.12,12.59-62.33,56.17-63.59,0,0-32.41-14.71-57.37,62.96Z"/>
    <path class="cls-4" d="M165.96,264.22s-1.08,1.29,.88,1.03c10.25-1.33,31.65-42.6,76.09-37.52,0,0-31.97-14.35-76.97,36.49Z"/>
    <path class="cls-4" d="M177.2,258.1s-.81,1.47,1.06,.84c9.8-3.27,22.88-47.89,67.47-51.43,0,0-34.13-7.94-68.53,50.59Z"/>
    <path class="cls-4" d="M158.92,269.34s-.87,1.04,.71,.84c8.3-1.08,25.64-34.51,61.63-30.39,0,0-25.89-11.62-62.34,29.56Z"/>
    <path class="cls-4" d="M151.32,275.25s-1.01,1.04,.59,.93c4.17-.31,34.81-33.39,53.27-17.89,0,0-12.02-18.72-53.86,16.96Z"/>
    <path class="cls-4" d="M220.85,243.33s-1.2-1.36,.73-1.74c1.93-.38,122.63-58.1,160.6-45.23,0,0-25.94-10.87-161.33,46.97Z"/>
    <path class="cls-4" d="M187.4,307.63s-.2-1.8,1.6-1c1.8,.8,17.2,1.4,4.8,23.8,0,0,9.6-24-6.4-22.8Z"/>
    <path class="cls-4" d="M197.8,306.03s-.2-1.8,1.6-1c1.8,.8,19.6,3,21.6,41.8,0,0-7.2-42-23.2-40.8Z"/>
    <path class="cls-4" d="M204.6,304.43s-.2-1.8,1.6-1c1.8,.8,26.4,4.2,50,36.6,0,0-35.6-36.8-51.6-35.6Z"/>
    <path class="cls-4" d="M212.22,302.4s-.44-1.76,1.45-1.2c1.89,.55,22.32-1.35,60.42,32.83,0,0-46.17-34.94-61.87-31.63Z"/>
    <path class="cls-4" d="M222.62,298s-.44-1.76,1.45-1.2,36.72,5.06,88.42,40.03c0,0-74.17-42.14-89.87-38.83Z"/>
    <path class="cls-4" d="M182.2,286.43s-.2-1.8,1.6-1c1.8,.8,55.2,3.4,85.6,30.2,0,0-34.9-24.78-87.2-29.2Z"/>
    <path class="cls-4" d="M172.2,290.43s-.2-1.8,1.6-1c1.8,.8,26.4,4.2,50,36.6,0,0-35.6-36.8-51.6-35.6Z"/>
    <path class="cls-4" d="M233.5,293.39s-.56-1.72,1.36-1.31c1.93,.41,37,2.35,91.12,33.44,0,0-77.66-34.39-92.48-32.14Z"/>
    <path class="cls-4" d="M241.9,290.99s-.56-1.72,1.36-1.31c1.93,.41,37,2.35,91.12,33.44,0,0-77.06-34.79-92.48-32.14Z"/>
    <path class="cls-4" d="M251.5,285.99s-.56-1.72,1.36-1.31c1.93,.41,45,4.75,134.72,39.04,0,0-120.67-40.39-136.08-37.74Z"/>
    <path d="M140.2,292.83s5.2-.4,4,1.2c-1.2,1.6-3.6,.8-3.6,.8l-.4-2Z"/>
    <path d="M171,306.83s5.2-.4,4,1.2c-1.2,1.6-3.6,.8-3.6,.8l-.4-2Z"/>
    <path d="M162.2,306.43s5.2-.4,4,1.2c-1.2,1.6-3.6,.8-3.6,.8l-.4-2Z"/>
    <path d="M66.83,294.61s5.04,1.32,3.39,2.44c-1.66,1.12-3.66-.42-3.66-.42l.28-2.02Z"/>
    <path d="M68.83,285.01s5.04,1.32,3.39,2.44c-1.66,1.12-3.66-.42-3.66-.42l.28-2.02Z"/>
    <path d="M61.63,280.61s5.05,1.32,3.39,2.44c-1.66,1.12-3.66-.42-3.66-.42l.28-2.02Z"/>
    <path class="cls-37" d="M141.4,355.63s-1.6,0-5.6,2c-2,0-13.2,3.6-18.8,13.6,0,0,12.4-9.6,24.4-15.6Z"/>
    <path class="cls-37" d="M229.11,448.28c.14,.26,.2,.68,.49,.7,.66,.04,1.89,.34,1.77-.29-.85-4.31-1.72-9.24-5.85-11.05-.64-.28-2.08,.13-2.15,1.02-.13,1.52-.24,2.87,.06,4.34,.3,1.42,2.46,1.43,3.38,.05,.94,1.67,1.37,3.51,2.32,5.25Z"/>
    <path class="cls-37" d="M218.04,453.01c.75,1.41,.62,3.27,2.04,3.83,.74,.29,2.59-.68,2.17-1.75-.8-2.06-1.19-4.3-2.58-6.11-.2-.26,.04-.79-.12-1.12-.59-1.22-1.74-1.96-3.15-1.63-1.12,2.2,.03,4.33,1.56,6.04,.14,.15-.03,.53,.08,.74Z"/>
    <path class="cls-37" d="M178.43,447.82c-.11-.38-.15-.84,.02-1.16,.53-1.03,1.32-2.15,.99-3.18-.35-1.06-1.46-.87-2.11-.31-1.14,.99-1.18,2.82-1.88,4.18-.2,.39-.15,.96-.59,1.35-.47,.42-.91,1.94-.82,2.52,.05,.31-.13,10.22,.09,9.96,.62-.73,3.67-10.47,3.74-11.36,.06-.73,.79-1.2,.56-2Z"/>
    <path class="cls-37" d="M152.8,441.03c2.63-2.5,5.42-5.46,4.98-9.17-.12-.98-1.89-.45-2.08,.4-.8,3.62-2.84,6.29-5.41,8.68-2.2,2.05-4.06,8.39-4.29,8.9,3.7-5.26,5.95-8,6.8-8.8Z"/>
    <path class="cls-37" d="M139.22,435.06c.52-.37,.22-.86,.44-1.19,.95-1.46,2.25-2.7,2.27-4.44,0-.28-.38-.59-.71-.36-.28,.18-.62,.31-.73,.44-2.03,2.45-3.43,5.12-4.87,7.93-.18,.36-1.33,4.85-1.01,4.96,.24,.09,1.96-4.1,2.17-4.21,1.26-.69,1.28-2.3,2.44-3.13Z"/>
    <path class="cls-37" d="M155.95,454.61c.44-.87,2.02-2.07,1.91-2.96-.12-.93,.35-2.37-.56-1.68-1.26,.95-4.71,2.3-4.98,8.1-.03,.57,2.95-2.12,3.63-3.46Z"/>
    <path class="cls-37" d="M170.4,437.43c.4-.67,1.11-.2,1.57-.46,.65-.37,1.26-.93,1.55-1.58,.97-2.15,2.74-3.97,2.88-6.36-1.49-1.4-2.17,.63-2.8,1.6-1.32-1.65-2.32,.23-3.62,.75-.07,.03-.28-.32-.36-.29-1.18,.44-1.86,1.52-2.86,2.3-.17,.13-.58-.05-.72,.09-.65,.6-1.62,.93-1.91,1.61-1.11,2.71-4.25,4.8-6.14,12.34,.38,.91,4.51-6.64,5-7.34,.84-1.2,.95,1.66,2.23,.99,.05-.03,.24,.21,.37,.35,.19-.28,.41-.51,.8-.4,0-.4-.13-.96,.07-1.12,1.24-.98,1.15-2.04,1.93-3.29,.46,.79,1.52,.07,2,.8Z"/>
    <path class="cls-37" d="M230.2,491.83s7.4-20.4,3-31.6c0,0,11.4,21.6,6.8,32.8,0,0-.4-10.4-4.4-15.4,0,0-4,12.8-5.4,14.2Z"/>
    <path class="cls-37" d="M215.4,489.23s5.4-8.8-2.6-27.2c0,0-.8,20.4-7.6,31.4,0,0,14.2-20.2,10.2-4.2Z"/>
    <path class="cls-37" d="M205.4,487.23s-.2-20,.2-23c0,0-3.8,16.6-14,26.2,0,0,14.4-12,13.8-3.2Z"/>
    <path class="cls-37" d="M195.8,455.23s6,13.6-4,32c0,0,6.4-12.2,1.6-19.2,0,0,2.6-3.4,2.4-12.8Z"/>
    <path class="cls-37" d="M176.6,486.83s-1-15.6,.8-17.8c0,0,.2-6.4-.2-7.4,0,0,4-6.2,4.2,1.2,0,0,1.4,7.8,4.2,12.4,0,0,3.6,5.4,3.4,11.8,0,0-10-30.2-12.4-.2Z"/>
    <path class="cls-37" d="M173,459.23s-6.6,10.8-8.4,29.8c0,0-1.4-6.2,2.4-20.6,0,0,4.2-15.4,6-9.2Z"/>
    <path class="cls-37" d="M151.2,479.03s5-5.4,6.4-10.4c0,0,3.6-15.8-2.8-7.2,0,0,.2,8-8,15.4,0,0,4.8-2.4,4.4,2.2Z"/>
    <path class="cls-37" d="M145.4,474.03s3.4-17.4,4.2-18.2c0,0,1.8-3.4-1-.2,0,0-8.8,19.2-12.8,25.8,0,0,8-9.2,9.6-7.4Z"/>
    <path class="cls-37" d="M139.6,457.43s11.6-22.4-10.2,3.4c0,0,11-9.8,10.2-3.4Z"/>
    <path class="cls-37" d="M124.2,442.83s4.8-18.8,7.4-18.6c0,0,8.2-9,1.6,1.6,0,0-6,9.6-5.4,19.4,0,0-.6-9.6-3.6-2.4Z"/>
    <path class="cls-37" d="M454.5,431.43s-12-10-14.5-13.5c0,0,13.5,18.5,13.5,25.5,0,0,2.5-7.5,1-12Z"/>
    <path class="cls-37" d="M460,409.43s-21-15-24.5-22.5c0,0,26.5,29.5,26.5,34,0,0,.5-9-2-11.5Z"/>
    <path class="cls-37" d="M477,255.43s-12-8-13.5-6c0,0,10.5,6.5,13,15,0,0-1.5-9,.5-9Z"/>
    <path class="cls-37" d="M485.5,335.93l-17.5-12s19,17,19.5,21l-2-9Z"/>
    <path class="cls-8" d="M94.75,313.43l22,4.75"/>
    <path class="cls-8" d="M145,475.43s-.5-3.5-9.5,7"/>
    <path class="cls-8" d="M150.5,480.43s2-6.5-4.5-2"/>
    <path class="cls-8" d="M204.5,488.93s1.5-11-10,2"/>
  </g>
</svg>